<?xml version="1.0" encoding="utf-8"?>
<!-- Generator: Adobe Illustrator 25.0.0, SVG Export Plug-In . SVG Version: 6.00 Build 0)  -->
<svg version="1.1" id="レイヤー_1" xmlns="http://www.w3.org/2000/svg" xmlns:xlink="http://www.w3.org/1999/xlink" x="0px"
	 y="0px" viewBox="0 0 751.1 292.1" style="enable-background:new 0 0 751.1 292.1;" xml:space="preserve">
<style type="text/css">
	.st0{fill:#E50012;}
	.st1{fill:#231815;}
</style>
<g>
	<g>
		<g>
			<g>
				<path class="st0" d="M87.6,174.2c22.8-17.8-5-74.8-5-74.8s31.8,28.2,35.8,61.6c1.8,15.6-1.9,29.1-10.7,36.8
					c-9.9,8.5-26,10.5-39.6,7.1c-28.6-7.1-56.9-44.2-68.1-81.8c0,0,11.8,19.4,28.4,34.2C45.4,172.6,68.6,189,87.6,174.2z"/>
				<path class="st0" d="M216,174.2c-22.8-17.8,5-74.8,5-74.8s-31.8,28.2-35.8,61.6c-1.8,15.6,1.9,29.1,10.7,36.8
					c9.9,8.5,26,10.5,39.6,7.1c28.6-7.1,56.9-44.2,68.1-81.8c0,0-11.8,19.4-28.4,34.2C258.1,172.6,235,189,216,174.2z"/>
				<g>
					<path class="st1" d="M151.7,163.1l-2.6-2.4c0,0,3.9,39.3-24.5,36.2C93,193.4,90,156.1,90,156.1l-40.8-37.3
						c0,0,13.4,15.2,16.9,33l0,0c7.1,63.7,47.1,67.5,68.6,58.3C158.1,200.2,151.7,163.1,151.7,163.1z"/>
				</g>
				<g>
					<g>
						<path class="st0" d="M217.5,0c-28.7,114.1-61.6,112.4-65.7,111.7v-0.1c0,0-0.1,0-0.2,0.1c-0.1,0-0.2-0.1-0.2-0.1v0.1
							c-4.1,0.7-37,2.4-65.7-111.7c0,0,4.1,141.5,65.7,142.2l0,0c0.1,0,0.1,0,0.2,0c0.1,0,0.1,0,0.2,0l0,0
							C213.3,141.5,217.5,0,217.5,0z"/>
						<path class="st1" d="M151.7,81.1c0,0-25.3,1.4-43-36.4c0,0,13.5,49.5,43,49.5s43-49.5,43-49.5C177,82.5,151.7,81.1,151.7,81.1
							z"/>
						<g>
							<path class="st0" d="M147.7,272.8c10.6-16,21.2-45.1,47.2-38.3c26,6.8,18.6,52.3,18.6,52.3s12.3-23.4,3-54.2
								s-36.4-34.5-52.7-18.5c0,0-6.4,6.2-11.2,13.9c-10.3,16.5-18.2,41.1-44.1,34.4s-18.6-52.3-18.6-52.3s-12.3,23.4-3,54.2
								s36.4,34.5,52.7,18.5C139.6,282.8,144.1,278.7,147.7,272.8"/>
						</g>
						<path class="st1" d="M178.8,196.9c-24,2.6-24.9-25.1-24.6-33.7c10.6,0.2,53.6-2.5,94.8-56.7c12.9-17,19.1-38.3,19.1-38.3
							s-32.2,72.6-116.4,72.6C67.5,140.9,35.3,68.2,35.3,68.2s6.2,21.3,19.1,38.3c41.2,54.2,84.2,56.9,94.8,56.7
							c0.3,8.6-0.6,36.3-24.6,33.7C93,193.4,90,156.1,90,156.1l-40.8-37.3c0,0,13.4,15.2,16.9,33l0,0c7.1,63.7,47.1,67.5,68.6,58.3
							c11-4.7,15.4-15.4,17-25.4c1.6,10,6,20.7,17,25.4c21.5,9.2,61.5,5.4,68.6-58.3l0,0c3.6-17.8,16.9-33,16.9-33l-40.8,37.3
							C213.4,156.2,210.4,193.5,178.8,196.9z"/>
					</g>
					<g>
						<path class="st1" d="M194.4,244.7c0,0-11.1-23.4-42.2-23.4v8.9c0,0,7.5-0.6,16.8,1.7C177.2,233.9,186.8,236.9,194.4,244.7z"/>
						<path class="st1" d="M152.2,221.3c0,0-23.3,0-33.7,11.7l10.6,9.1c8.8-12.4,23.1-11.9,23.1-11.9L152.2,221.3L152.2,221.3z"/>
						<circle class="st1" cx="129.2" cy="243.3" r="15"/>
					</g>
				</g>
			</g>
		</g>
	</g>
</g>
<g>
	<g>
		<path class="st1" d="M489.3,246.6c-0.7-0.1-1-1-1.9-1.1c-0.8-0.9-0.9-2.5-1.2-3.6c-2.2,0.7-5.1,2.2-8.1,2.5c-0.2,0-0.5,0-0.7,0
			c-0.6,0-1.1-0.1-1.2-0.7c0.9,0,1.7-0.1,2-0.7c-0.2-0.4-0.6-0.5-1-0.5h-0.9c-1.1-0.1-2.2-0.8-3-1.5c-0.4-0.4-0.7-1.1-1.3-1.1l0,0
			c0,1.8,1.9,2.2,2.7,3.4c-2-0.4-2.8-1.8-3.9-3.2c-1-1.4-1.9-2.8-2-5c0-0.7,0-1.3,0-1.9c0-6,2-10.5,4.5-14.5c0.8-1.3,2.1-2.8,3-3.7
			c1.5-1.3,3.7-2.2,5.3-3.4h0.1c0.1,0,0.2,0.1,0.4,0.1c0.5-0.5,1.3-0.7,2.2-0.7c0.2,0,0.4,0,0.6,0c-1,0.6-2.4,0.8-3.6,1.4
			c-0.5,0.2-1,0.7-1.6,1c-0.8,0.5-1.6,0.8-1.9,1.9c0.9-0.1,1.6-0.8,2.4-1.2s1.7-0.8,2.5-1.2c0.4-0.2,1.1-0.3,1.6-0.3
			c0.3,0,0.7,0,1,0h0.8c1,0,2,0,2.6-0.4c-0.3-0.9-1.8-0.6-2.7-0.9c0.4-0.3,0.8-0.4,1.3-0.4c0.6,0,1.2,0.2,1.8,0.3
			c1,0.2,1.7,0.1,2.4,0.7c0.5,0.5,0.9,1.1,1.3,1.7c0.2,0.1,0.5,0.2,0.7,0.4c0.1,0.7,0.3,1.4,0.7,1.9c0,0.1,0,0.3,0,0.4
			c0,0.6,0.4,1,0.5,1.5v0.1c0,0.3-0.1,0.6-0.1,0.9c0,0.1,0,0.3,0.1,0.5c-0.3,0.6-0.8,1-0.8,1.8c0,0.1,0,0.1,0,0.1
			c-0.1,0-0.2-0.1-0.3-0.1l0,0c-0.3,0.2-0.4,0.8-0.5,1.3c-0.2-0.1-0.2-0.4-0.4-0.4c-0.7,0.1-1.4,0.3-2.1,0.5c-0.8-0.7-2.2-0.7-2.4-2
			c-0.8-0.7-1.8-0.9-3.1-0.9h-0.8c-2.8,0-4.9,2.6-6.5,4.7c-2,2.6-3.6,5-3.6,8.9c0,0.3,0,0.6,0,0.9c0.1,1.5,0.7,2.7,1.8,3.3
			c0.6,0.3,1.3,0.3,2.1,0.4c0.6,0,1,0.1,1.5,0.1c0.4,0,0.7,0,1.2-0.1c2.1-0.4,4.3-1.7,6.1-2.5c0.7-0.6,0.8-1.7,0.9-2.7h-0.1
			c-0.5,0-1,0.1-1.4,0.3c-0.5,0.1-1.1,0.1-1.4,0.2c-0.7,0.2-1.2,0.9-2,0.9h-0.3c-0.4,0-0.9-0.1-1.3-0.4c-0.5-0.3-0.7-1-1.1-1.3
			c-0.6-0.5-1.4-0.6-1.6-1.5c0-0.2,0-0.4,0-0.6c0-1.4,0.8-2.5,1.8-3c0-0.1,0-0.3,0-0.5c0-2.2,2.7-2.1,4.3-2.9l0,0
			c0,0.6-1.3,0.6-1.3,1.5c0.6,0.2,1.3,0.3,2,0.3c1.6,0,3.5-0.3,5.2-0.3c0.6,0,1.3,0,1.8,0.2c-0.2,0.3-0.7,0.3-1.1,0.3h-0.8
			c-0.8,0-1.6,0.1-2.4,0.2h-1.5c-0.8,0-1.5,0.1-1.7,0.8c0.4,0.2,0.8,0.3,1.4,0.3c1,0,2.3-0.3,3.4-0.3c2.1-0.1,4.2-0.2,5.6-0.8
			c0-0.4-0.3-0.5-0.7-0.5c-0.1,0-0.3,0-0.5,0c-0.3,0-0.6,0-0.7-0.2c0.5-0.6,1.4-0.4,2-0.6c1.5-0.3,3.1-0.5,4.3-1
			c0,0.2-0.5,0.6-0.5,1h0.3c0.7,0,1.1-0.3,1.9-0.3h0.3c-0.7,0.4-1.6,0.6-1.9,1.4l0,0c0.2,0,0.6-0.3,0.9-0.3c0,0,0.1,0,0.2,0l0,0
			c0,0.2-0.6,0.4-0.7,0.9c0,0.1,0,0.2,0,0.3c0,0.4,0.2,0.7,0.4,1.1h0.1c0.1,0,0.2-0.1,0.3-0.1h0.1l0,0c0,0.4-0.7,0.7-0.8,1.2
			c-0.1,0.4,0,0.8-0.1,1.2c-0.4,0.9-1.3,0.9-1.8,1.8c-0.6-0.1-1.3-0.2-2-0.2c-0.9,0-1.8,0.1-2.7,0.2c0,0.4,0.1,0.9,0.1,1.4
			c0,0.1,0,0.2,0,0.4c0,0.3-0.4,0.1-0.4,0.4c-0.1,0.3-0.3,0.6-0.3,1v0.1c-0.6,0.6-0.7,1.8-0.8,3.1c-0.1,1.1-0.3,2.2-0.5,3.4
			c0,0.4-0.1,0.8-0.1,1.3s0,1,0.3,1.4c-0.8,0.7-1.2,2.3-2.5,2.3L489.3,246.6L489.3,246.6z M500.1,223.6c0-0.1,0-0.1,0-0.2
			c0-0.3,0.3-0.4,0.6-0.4c0.1,0,0.2,0,0.3,0C500.7,223.3,500.5,223.5,500.1,223.6z"/>
		<path class="st1" d="M532.1,243.1c0,0.2,0,0.5-0.1,0.7c-0.4,1.4-1.9,2.7-3.6,2.8c-0.5-0.3-0.7-0.7-1.5-0.7
			c-3.5-3.9-6.5-8.4-9.8-12.5c-0.5,0-0.6,0.4-0.9,0.6H516c-0.7,0-1.2,0.2-1.4,0.6c-0.2-0.1-0.4-0.1-0.6-0.1c-1.1,0-1.6,1.4-2,2.5
			c-0.4,1-0.6,1.8-1,2.7c-0.8,2-1,4.3-2.1,5.2c-0.3,0.2-0.9,0.5-1.5,0.5c-0.1,0-0.2,0-0.4,0c-0.6-0.1-0.5-0.7-1.3-0.7
			c-0.2-0.6-0.7-0.8-1.3-1c-0.4-0.6-0.5-1.4-1-1.8v-0.1c0-0.2,0.2-0.2,0.2-0.5l0,0c0-0.3-0.2-0.3-0.4-0.3c-0.1,0-0.3,0-0.5,0
			c0,0-0.1,0-0.2,0c0-0.6,0.6-0.6,1-0.8c1.2-0.8,1.8-2.1,2.7-3.3c0.1,0.1,0.1,0.2,0.1,0.3c0,0.4-0.2,0.8-0.2,1.3c0,0.1,0,0.2,0,0.3
			c2.1-1.5,3.1-4.7,3.9-7.8h-0.1c-0.3,0-0.6,0.3-0.7,0.5c-0.8,1.1-1.1,2.9-1.9,4.1c-0.2-0.1-0.3-0.3-0.3-0.6c0-0.3,0.2-0.7,0.4-1
			c0.2-0.4,0.5-1,0.8-1.3c-0.1-0.1-0.1-0.3-0.1-0.5c0.9-1.2,1.1-2.9,1.9-4.1c0-0.1-0.1-0.3-0.1-0.4c0-0.5,0.4-0.9,0.4-1.5
			c0-0.1,0-0.2,0-0.3l0,0c-0.6,0-0.6,0.7-1.2,1.1c-0.3,0.2-0.7,0.3-1,0.3c-1,0-2-0.6-2.6-1.2c-1.6-0.1-2.4-1.5-2.4-2.9v-0.1
			c0-0.3,0.2-0.6,0.2-0.9v-0.1c0-0.6-0.5-1.1-0.5-1.8c0-0.2,0-0.4,0.1-0.6c0.2-0.7,1.2-1.8,1.6-2.4c0.3-0.3,0.6-0.7,0.8-1.1
			c0.2-0.4,0.3-1,0.8-1h0.1c-0.2,0.6-0.7,1-0.7,1.7c0,0.1,0,0.3,0.1,0.5c1.3-0.3,1.8-1.4,3.3-1.4h0.1c-0.3,0.8-1.6,0.7-1.6,1.7
			c0,0.1,0,0.3,0,0.4c1.4-0.3,2.4-1.3,3.6-1.9c2.4-1.2,5.1-2,7.2-2.8c-0.3-0.2-0.7-0.2-1-0.2c-0.7,0-1.5,0.3-2.2,0.5
			c-0.9,0.3-1.7,0.7-2.9,0.8c1.4-0.8,3.3-1.6,5.3-2.1c1.7-0.4,3.8-0.8,5.7-0.8c0.2,0,0.5,0,0.7,0c4.6,0.3,8.5,3.4,8.5,8.5v0.6
			c0,3.4-2,5.5-4.1,7c-0.6,0.4-1.2,1-1.9,1v-0.1c0-0.3,0.3-0.5,0.6-0.7c0.7-0.7,1.9-1.4,2.6-2.2h-0.2c-1.7,0-2.7,1.4-4,2.2
			c-1.2,0.7-2.7,0.7-3.1,2c0.1,0.1,0.3,0.1,0.4,0.1c0.5,0,1.1-0.6,1.8-0.6c0.1,0,0.2,0,0.3,0c-0.4,0.8-1.8,1.1-2.6,1.5
			c0.5,0.7,1,1.4,1.6,2s1.2,1.3,1.7,1.9c0.2,0.2,0.6,0.4,0.8,0.7c0.7,0.7,1.1,1.9,2.3,2c0.4-0.5,0.2-1.6,0.5-2.3
			c0.5,0.7,0,2.3,0.6,2.8c0-1-0.2-2.3-0.2-3.5c0-0.5,0-1.1,0.2-1.5c0.4,1.2,0.2,3.1,0.4,4.5c0.1,0.6,0.3,0.9,0.4,1.4
			c0.2-0.5,0.2-1.3,0.2-2c0.4,1.8,0.7,3.7,1.6,5c-0.2,0.2-0.2,0.5-0.2,0.9L532.1,243.1L532.1,243.1z M510.5,215.5
			c-0.4,0-0.6,0.3-0.9,0.3c0,0-0.1,0-0.2,0c0-0.6,0.8-0.5,1.2-0.8c0.1,0,0.1,0.1,0.1,0.2v0.3H510.5z M521.6,225
			c1.5-0.6,3.3-1.3,4.3-2.2c0.5-0.4,1.2-1.3,1.2-2.2c0-0.1,0-0.2,0-0.4c-0.3-1.3-2.6-1.7-4.7-1.7c-0.4,0-0.9,0-1.3,0
			c-1.5,0.1-3.1,0.8-4.3,1.5c-1.3,0.7-2.6,1.2-3.4,2.1c0.4,0,0.9,0.2,1.3,0.3c0.7,1.5,2.1,2.3,2.3,4.3
			C518.5,226.4,520.1,225.7,521.6,225z M530.7,235c0,0.1,0.1,0.3,0.1,0.4c0,0.4-0.2,0.7-0.2,1.1c-0.2,0-0.2-0.3-0.2-0.6
			c0-0.3,0-0.7,0.1-0.8h0.2V235z"/>
		<path class="st1" d="M557.4,240.4c-1.5,0-2.3,1.5-3.4,2.3c-1.2,0.8-2.9,0.9-3.9,2c0.3,0.1,0.6,0.2,0.8,0.2c1.6,0,3.6-1.8,5.1-2.1
			c-1.7,2-4.6,3-7.8,3c-1.8,0-3.7-0.3-5.5-1c-4.6-1.8-8.5-6-8.8-11.6c0-0.7-0.1-1.3-0.1-1.8c0-1.5,0.2-2.8,0.6-4.3
			c0.4-1.8,0.8-3.4,2-4.1v0.1c0,0.4-0.4,0.9-0.4,1.4c0,0.2,0.1,0.4,0.2,0.5c0.6-0.8,1.1-1.7,1.6-2.6c0-0.2-0.2-0.3-0.3-0.4
			c-0.5,0-0.5,0.6-1,0.6c0-0.1-0.1-0.3-0.1-0.4c0-0.6,0.5-1.1,0.7-1.6c1-1.7,2.3-3.5,4.1-4.3l0,0c0,0.2-0.3,0.6-0.6,0.8
			c-1,1.1-2.4,2-2.6,3.9c0.8-0.3,1.1-1.2,1.6-1.7c2-2.2,4.8-3.4,7.2-5.3c-0.2-0.2-0.4-0.3-0.7-0.3c-0.6,0-1.3,0.5-1.8,0.5h-0.1
			c0.8-0.9,2-1.4,3.3-1.8c-0.3-1-1.7-0.9-2.2-1.7c1.2,0,2.1,0.8,3,1.1c-0.3-0.5-1-0.6-1.2-1.2c1.1,0.3,2,0.8,3.1,1.3
			c0.1,0,0-0.4,0.2-0.4l0,0c0.5,0.1,0.8,0,1.2,0.2c1,0.5,1.2,1.8,2,2.4c0.4,0.3,0.9,0.4,1.3,0.7c0.7,0.5,1.2,1.4,2,1.8
			c2.5,3.1,4.8,7.9,4.8,13.4v0.2c0,4.3-1.9,9-4.1,11.2c-0.2,0.2-0.5,0.3-0.7,0.5C556.8,241.3,557.4,241.1,557.4,240.4L557.4,240.4z
			 M556.8,227.7c0-3.7-1.5-7.7-3.6-9.2c-0.4,0.8-0.7,1.9-1.6,2c-0.2,0-0.4,0.1-0.6,0.1c-0.4,0-0.7-0.1-1-0.1h-0.1
			c-2,0.3-3.5,1.4-4.6,2.7c-1.6,2-3.1,4.5-3.7,7.4c-0.1,0.6-0.2,1.3-0.2,1.9c0,1.9,0.5,3.7,1.4,4.9c1,1.4,3.1,2.5,5.4,2.5
			c0.3,0,0.6,0,0.9,0c1.2-0.1,2.4-0.8,3.2-1.4c2.4-1.7,4.6-6.5,4.6-10.3v-0.5H556.8z M542.6,215.5c0-0.1-0.1-0.2-0.1-0.3
			c0-0.4,0.5-0.8,0.8-0.8c0.2,0,0.3,0.1,0.4,0.3C543.5,215,543,215.3,542.6,215.5z"/>
		<path class="st1" d="M577.1,245.6c-0.4,0-0.7-0.1-1-0.1c-0.1,0-0.3,0-0.4,0.1c-0.2-0.1-0.6-0.2-0.8-0.4c-2.3-0.3-4.1-1.4-5.7-2.8
			c-1.4-1.2-2.5-2.5-3-4.4c0.5,0,0.6,0.6,0.8,1c0.2,0.3,0.6,0.7,0.9,1c0.6,0.6,1.1,1.4,2,1.6c-0.6-1.3-1.8-2.4-2.5-3.8
			c-0.6-1.1-1-2.6-1.3-4c-0.1-0.6,0-1.5-0.7-1.7c-0.3,0-0.4,0.4-0.4,0.8c0,0.3,0,0.6,0,0.9v0.2h-0.1c-0.3,0-0.4-0.4-0.4-0.6
			c-0.1-0.5-0.2-1.1-0.2-1.7c0-1.3,0.2-3,0.5-4c0.1-0.3,0.3-0.6,0.4-0.9c0.3-1.5,0.5-3.1,1.1-4.3c-0.7-0.6-0.9-2-0.9-3.1
			c0-0.5,0-1,0.1-1.4c0.2-0.7,1-0.9,1.1-1.8v-0.1c0-0.6-0.2-1.5-0.2-2.3v-1.5c0-0.6,0-1.2,0.3-1.5c0.1,0,0.1,0,0.1,0.1v0.4
			c0,1.4,0.2,2.5,0.6,3.5l0,0c0.1,0,0.1-0.1,0.2-0.1l0,0v-0.3c0-0.6-0.2-1.3-0.2-2c0-0.2,0-0.4,0.1-0.7c0.4,0.6,0.4,1.7,1.1,2
			c0.3-0.2,0.3-0.5,0.3-0.7c0-0.2,0-0.4,0-0.7c0,0,0,0,0.1,0s0.4,0.5,0.6,0.6h0.2c0.8,0,1.5-0.9,2.1-1h0.2c0.7,0,1.5,0.4,1.8,0.9
			c1.4,0.4,2.3,1.3,3.2,2.3c0.1,0.5,0,1,0.1,1.4c0.1,0.3,0.4,0.4,0.5,0.6c0.4,0.7,0.3,1.6,0.7,2.4c-0.2,0.2-0.5,0.6-0.5,0.8
			c0,0.1,0,0.2,0.1,0.3l0,0c-0.3,0-0.3,0.3-0.4,0.6c-0.4,0.1-1.1,0.7-1.4,1.1c-0.4,0.5-0.7,1-1.3,1.3v0.1c0,0.1,0,0.1,0,0.2
			c-0.3,0-0.4,0.2-0.7,0.3c-0.2,0.5-0.5,0.7-0.6,1.2c-0.8,0.1-0.8,1.1-1.4,1.3c0,0.4-0.4,0.5-0.4,1h-0.4c-0.7,1.2-1.1,2.9-1.1,4.7
			c0,2,0.5,4.1,1.3,5.3c0.3,0.4,0.7,0.7,1.2,1c0.4,0.3,0.9,0.7,1.3,0.9c0.7,0.3,1.8,0.1,2.7,0.6c0.2-0.1,0.5-0.1,0.7-0.1
			s0.4,0,0.6,0.1c0.6-0.3,1.4-0.5,2.1-0.8c1.7-1.1,3-2.7,3.9-4.5l0,0c0-0.1,0-0.1,0.1-0.1h0.2c1.3-3.8,2.8-8.7,2.8-13.5v-0.2
			c0-1.2-0.8-1.8-0.9-3c-0.1-0.4-0.1-0.7-0.1-1c0-0.5,0-0.9-0.2-1.4c1.3-1,1.4-3,1.7-4.9c0.4,0.7,0.3,2,0.6,2.7
			c0.2-0.1,0.2-0.4,0.2-0.7c0-0.3,0-0.6,0-0.9c0-0.2,0-0.5,0.1-0.6c0.5,0.6,0.5,1.9,1.4,2.1c0.1,0,0.1,0,0.1-0.1s-0.1-0.3-0.1-0.4
			c0-0.1,0-0.1,0.1-0.2c1,0.8,1.4,2.3,2.1,3.4c-0.7,1.8-0.5,4.6-0.7,6.8c-0.3-0.6-0.4-1.4-0.6-2.2c-0.6,1-0.7,2.2-0.7,3.5v2.5
			c0,1.7-0.6,3.2-0.7,4.6c0,0.3,0,0.6,0,0.8c0,0.3,0,0.6,0.2,0.8c0.8-1.2,1-3.5,1.3-5.4c0.1-0.6,0.1-1.4,0.6-1.8
			c-0.1,2.3-0.5,4.4-0.8,6.5c-0.1,0.7-0.4,1.4-0.7,2.1c-0.4,0.7-0.4,1.5-0.6,2.1c-0.4,1-1.4,1.5-1.4,2.5c-0.7,1.2-1.6,2.2-2.5,3.3
			c-1.2,0.7-2.5,1.6-3.9,2.1c-1.2,0.5-2.8,1.1-4.4,1.1h-0.2V245.6z M565.6,235.9c-0.5,0-0.7-0.4-0.7-0.9c0-0.2,0-0.3,0-0.5
			C565.6,234.6,565.4,235.5,565.6,235.9L565.6,235.9z M590.1,212.3c-0.2,0-0.4-0.2-0.4-0.4c0-0.1,0-0.2,0.1-0.3
			C590.2,211.6,590.1,212.1,590.1,212.3L590.1,212.3z"/>
		<path class="st1" d="M621,229.1c1.3,0,2-1.2,3.5-1.5c-0.6,1.3-2,1.6-3.3,2.2c-0.6,0.3-1.2,0.6-1.8,0.9c-0.6,0.3-1.3,0.3-1.9,0.6
			c-1.4,0.6-2.8,1.3-4.6,1.6c-0.9,0.1-1.7,0.4-2.5,0.6s-1.5,0.5-2.3,0.5c-0.3,0-0.6,0-0.9-0.1c-0.6,1.1-1,3.5-1.2,5.2
			c-0.2,2.1,0,4.2-0.8,5.7c-0.3,0.5-0.8,0.6-1,1.1c-0.1,0-0.2,0-0.4,0c-0.6,0-0.9-0.4-1.3-0.6c-0.5-0.2-0.9-0.3-1.2-0.5
			c-0.5-0.5-0.5-1.3-1-1.6v-0.1c0-0.7-0.3-1.1-0.6-1.5c0-0.2,0.3-0.3,0.3-0.6c-0.2-0.7-1-0.7-1.5-1c0.9-0.4,1.8-0.4,2.3-1.1
			c0.5-0.7,0.4-2,1.4-2.4c0,0.5-0.4,1.2-0.4,1.8c0,0.2,0,0.5,0.2,0.6c0.5-0.4,0.8-1.1,1-1.8c0.6-2,1.2-4.4,1.4-6.6
			c-1.3,1-1.2,3.2-2,4.7c0-0.2,0-0.4,0-0.6c0-1.1,0.6-2.1,0.8-3.3c0.2-0.8,0.3-1.6,0.6-2.5c0.3-1.2,0.7-2.3,0.7-3.6
			c0-0.4,0-0.8-0.1-1.2c-0.1-0.7-0.7-1.1-0.7-1.9c-0.9,0.4-1.7,1.2-2.3,2.2c-0.1,0.4-0.1,0.8-0.3,1.2c-0.4,0.7-1.2,1-2,1
			c-0.7,0-1.5-0.3-2-0.7h-0.4c-1.6,0-2.6-1.2-2.6-2.7c0-0.5,0.1-1,0.3-1.4c0-0.2-0.2-0.3-0.2-0.6c0.2-0.8,0-1.6,0.4-2.2
			c0.3-0.5,1.1-0.7,1.7-1.2c0.8-0.8,1-1.7,2-2c0.5-0.9,1.2-1.6,2.2-2l0,0c0,0.2-0.4,0.5-0.7,0.8c-0.4,0.4-0.7,0.7-0.9,1.3
			c0,0,0,0,0,0.1c0.5-0.4,0.8-1.1,1.5-1.3c-0.1,0.6-0.5,0.9-0.6,1.5c0.3,0,0.5-0.8,1-0.9c0,0.2-0.1,0.4-0.1,0.7
			c0.8-0.2,1.8-1.2,2.8-1.2c0.2,0,0.3,0,0.5,0.1c-1,1-2.7,1.2-3.3,2.5h0.2c0.9,0,1.7-0.6,2.5-1c2.6-1.3,5.4-2.3,8.5-3.2
			c-0.1-0.3-0.5-0.3-0.8-0.3s-0.6,0-0.7,0c-0.7,0.1-1.4,0.5-2,0.5c-0.1,0-0.1,0-0.2,0c0.9-1,2.8-1.3,4.5-1.5c0.3,0,0.6,0,0.9,0
			c0.7,0,1.4,0,2.1,0h3c4.2,0.4,7.8,3.7,8.2,8.1c0,0.3,0,0.6,0,0.8c0,2.2-0.7,5-1.9,5.7c0-0.7,0.7-1.3,0.7-1.9c0-0.1,0-0.3-0.2-0.5
			c-1,0.4-1.2,1.5-1.9,2.3c-0.4,0.5-1,1-1.5,1.3c-0.5,0.4-1.3,0.7-1.6,1.3h0.5V229.1z M608.1,213.7c-0.3,0-0.6,0.3-0.9,0.3
			c-0.1,0-0.2,0-0.3-0.1l0,0c0-0.4,0.4-0.6,0.8-0.6c0.1,0,0.3,0,0.4,0V213.7z M620.2,224.1c0.9-1.3,2.4-2,2.8-3.9
			c-0.5-1.3-1.8-2.2-3.5-2.3c-0.6,0-1.1,0-1.7,0c-3.4,0-7,0.7-8.9,2c1.1,0.5,0.9,1.6,1.7,2.6v0.2c0,0.8,0.2,1.4,0.2,2
			c0,0.2,0,0.4-0.1,0.6c-0.3,0.9-1.5,1.4-1.6,2.5c1.5-0.2,3.2-0.6,4.3-1.1c0.5-0.2,1.1-0.2,1.6-0.4c0.6-0.2,1.2-0.5,1.7-0.6
			c0.7-0.1,0.6-0.3,1.2-0.6c0.7-0.3,1.3-0.4,1.6-0.8h0.7V224.1z"/>
	</g>
	<g>
		<path class="st1" d="M405.3,184c0-2.6,2.3-2.7,3-4.4h-0.9c-3.4,0-6.5,2.7-9.6,4.4c-1.5,0.9-3.1,2.1-4.8,3
			c-2.8,1.4-5.9,1.6-7.6,4.3c0.2,0.6,0.5,0.9,0.9,0.9c0.6,0,1.4-0.5,2-0.7c3.4-1.2,5.9-2.7,9.5-2.7c-2.8,2.2-6,3-9.4,4.6
			c-2.8,1.2-4.3,2.2-7.8,3c-2.6,0.6-5.4,0.9-8.3,0.9c-3.3,0-6.5-0.5-9.1-1.7c-3-1.5-5.3-4.4-7.9-6.5c-0.9-0.6-1.8-0.7-2.5-1.5
			c-1.1-1.1-1.4-2.7-3.1-3.6c-1.1-2.8-2.1-5.5-3.7-7.5v-1.2c-0.2-0.5-0.7-0.6-1.1-1.1c-1.5-4.8-2.2-10.1-2.2-15.5
			c0-8.9,2-18,5.5-24.6c3.2-6,6.3-11.6,10-14.8c0.6-0.4,1.6-0.7,2.5-1.1c2.2-2.7,5.8-4.7,9.6-6.7c3.4-1.8,7.1-4.2,11.5-4.6
			c1.2-0.1,3,0,4.4-0.2h0.7c2.1,0,4.3,0.7,4.9,2.1h-0.5c-1.8,0-4.2-0.5-6.5-0.5h-0.6c-4.1,0.4-7.9,1.7-9.5,4.2h0.7
			c2,0,4.2-1.1,6.5-1.4c0.7-0.1,1.4-0.1,2-0.1c5,0,9.2,2.3,12.8,4.2c0.2-0.5,1.1-0.4,1.4-0.9v-0.5c0-2.2-2.7-1.7-3.3-3.6h0.2
			c2.3,0,4.1,1.6,5.3,3c5.2,5.7,7.4,15.8,8.3,25.2c0,0.2,0,0.4-0.1,0.4s-0.4-0.5-0.6-0.5c-1.6,2.1-2.3,5.3-4.2,7.1
			c0-0.1-0.1-0.4-0.1-0.5c0-0.4,0.2-0.6,0.2-0.9c0,0-0.1-0.1-0.1-0.2c-1.7,0.1-2.2,2.3-2.6,3.1c-0.1,0.1-0.2,0.1-0.4,0.1
			c-0.2,0-0.4-0.2-0.4-0.5c0-0.1,0-0.1,0-0.2c0-0.2,0-0.4-0.1-0.5c-1.4,0.2-2.6,0.7-2.8,2.2c-3.4-1.5-6.8-1.8-8.9-4.4
			c-1.4-1.7-1.8-3.9-2.7-6c-2.1-2.7-2.2-7.3-6.8-7.3h-0.6c-2.5,0-5.4,1.1-7,1.7c-6.5,2.7-14,11.7-16.6,17.9
			c-1.2,2.8-2.1,6.2-2.1,9.2c0,0.7,0,1.5,0.1,2.1c-0.2,0.5-0.4,1.1-0.4,1.7c0,2.2,1.4,5.3,1.4,7.6v0.4c2,2.5,3.8,5.2,5.8,7.6
			c3.6,1,6.7,3.3,10.8,3.3c3.8,0,9.5-2,12.7-3.3c11.1-4.6,23.4-14.3,30.7-22.1c1.6-1.8,3.7-3.5,5.3-5.5c1.5-2,15.4-15.4,17.4-16.9
			v0.1c0,2.5-15.5,14.7-15.7,17.9c1.2-0.4,10.3-11.1,12.5-11.4c-0.9,3.1-12.6,12.8-12.6,16.5c0,0.2-0.1,0.3-0.1,0.6
			c1.7-0.1,8.4-11.2,10.3-11.8l0.3,0.4c0,1.4-8.4,10.7-8.4,12.7c0,0.6,0.1,1.2,0.5,1.7c0.1,0.2,0.2,0.2,0.4,0.2
			c0.2,0,5.2-7.3,5.7-7.3h0.1c-0.2,0.6-4.1,7.3-4.1,7.9c0,2-3,5.9-3,7.9c0,0.5,0,1.1-0.2,1.8c-6.2,3.7-11.3,9.5-17,13.1V184H405.3z
			 M401.8,186.5c0-0.4-0.4-0.4-0.4-0.9v-0.1c0.7-0.2,1.7-1.2,2.5-1.2c0.4,0,0.6,0.1,0.9,0.6c-0.9,0.7-2,1.2-3,1.7V186.5z
			 M436.5,132.8c-0.1-0.2-0.1-0.4-0.1-0.6c0-1,0.6-2,1.5-2c0.2,0,0.5,0.1,0.7,0.4C438.2,131.7,437.9,132.7,436.5,132.8z"/>
		<path class="st1" d="M493.9,198c-1.8,0-3-1.8-5.2-2.2c-1-3.7-10-6.5-11.7-9.2c2.3,0.4,6.1,3.2,8.5,3.7
			c-3.7-3.8-14.2-7.2-17.3-10.7h0.4c1.4,0,2.3,1.1,3.4,1.7c2.1,1,8.5,3.2,10.6,4.6c-1.2-2.1-9.7-4.1-11.2-6.3c0.4-0.1,0.6-0.1,1-0.1
			c2.3,0,9.4,4.7,11.4,4.7c0.4,0,0.9-0.1,1.4-0.4c0-3.1-1.6-5.3-2.2-7.9c-1-3.6-1.4-6.9-3.4-8.5c-2.5,0-4.8,0-7.5,0.1
			c-4.6,0.2-8.7,1.6-12.6,1.8c0.9-1.7,3.6-1.6,5.5-2c2.7-0.6,4.7-0.5,8.1-1.1c1.1-0.1,2.7-0.6,3.3-1.8c-0.7-0.7-1.6-1-3-1h-1.1
			c-2.3,0.2-5.4,1.1-8.5,1.6c-5.1,0.7-9.2-0.1-10.8,3.2c0.4,1.2,2.5,0.7,3.4,1.1c-0.5,1.1-2.1,1-3.2,1.4l-3.4,1.1
			c-4.2,6.2-8.6,12.2-9.9,21.2c-2.7,0.5-4.8,1.5-7.3,2.2c-1.5-0.1-2.5-2.3-3.6-2.3c-0.4,0-0.9,0.2-1.2,0.7c-0.1-0.1-0.2-0.6-0.2-1
			c0-0.5,0.1-1,0.2-1.2c-0.9-1.5-1.7-2.6-2.5-3.9c0-0.4,0.1-0.6,0.2-0.9c-1.1-1.1-1.5-2.6-1.5-4.3c0-1.4,0.2-3,0.4-4.4h0.2
			c0.7,0,0.5,0.7,1,0.7c2.6-3.3,4.7-7.1,6.9-11.1c3-5,6.2-10.5,9.4-15.6c2.3-3.9,3.9-8.5,6.8-12.2v-1.1c1.6-0.5,0.9-3.4,2.5-3.4
			c0.1,0,0.4,0,0.6,0.1c-1.4,5.5-5.8,9.5-7.1,15.6h0.2c1.4,0,1.6-1.7,2.2-2.7c3.1-4.7,6.4-10.1,9.1-15.5c1-1.8,2.5-3.8,2.5-5.9
			c0-0.4,0-0.7-0.1-1.1h-0.3c-2.5,0-2.5,2.5-3.8,3.4c0-0.4-0.1-0.6-0.1-1c0-1.6,0.9-3.2,2-3.9v-0.4c0-2.7,3.1-5.7,3.1-7.4
			c0-0.4-0.7-1.5-0.7-1.5c0.1-0.7,1.2-1.1,1.2-2v-0.2c-0.1-0.9-1-0.7-1.6-1.1c0.5-1.1,1.4-1.1,2.2-1.7c1.4-1,2.3-2.8,3.8-3.8
			c1-0.6,2.5-0.7,3.4-1.2s1.6-1.5,2.6-1.7c0.5-0.1,1-0.2,1.5-0.2c2.1,0,4.1,1.2,5.4,2.7c0.4-0.1,0.6-0.2,1-0.2h0.2
			c0.6,3.4,4.4,6,4.8,8.9v0.4c0,0.5-0.1,1.1-0.1,1.6s0.5,1.1,0.5,1.7c-0.6,2.8-6.8,3.6-6.9,7.5c0.6,0.9,0.5,2,0.9,3
			c0.4,1.1,1.2,2.1,1.6,3.2c0.4,1,0.2,2.1,0.6,3c1,2.5,2.5,5,3.3,7.8c0.7,2.3,1.4,4.6,2.3,6.8c0.6,1.5,1.7,2.6,1.8,4.4
			c0,0.6,0.7,0.5,0.9,1c1.1,4.3,2.1,9.1,4.2,11.6c0.4,3.9,2.5,6,3,10c-3-1.6-2.5-6.8-5.5-8.5c-0.4,0.2-0.5,0.6-0.5,1
			s0.1,0.7,0.1,1.1c0.2,1.8,1.5,3.9,2.7,6.3c1.1,2.2,1.6,4.6,2.6,5.9c0.5,0.7,1.1,1.4,1.8,1.4c0.2,0,0.5-0.1,0.7-0.2
			c-0.1-2.1-1.4-3-1.6-4.8c3.4,2,5.2,6.2,5.2,10.8c0,1.2-0.1,2.5-0.4,3.7c-1.1,0.6-1.2,2.1-1.8,3c-0.9,1-3.2,2.3-4.3,2.5h-0.5V198z
			 M470.7,134.5c-3.1,3.4-5.3,8.1-7.1,12.8c-1.4,2-3,3.7-3.8,6c5.9-0.2,11.6-1.7,17.5-2.7C475.7,144.8,473.1,139.6,470.7,134.5z"/>
		<path class="st1" d="M569.4,184.9c-2.8,4.6-8,6.9-14.2,8.1v-0.2c0-1.7,2.3-1.2,2.7-2.6c-1-0.1-2-0.2-3.1-0.2
			c-3.4,0-7.4,0.7-11.2,1c-0.7,0-1.5,0.1-2.2,0.1h-2.5c-1.8,0-3.6,0.1-4.8,1.2c1.1,1.4,2.8,1.7,4.9,1.7c2.8,0,6.2-0.7,9.1-0.7
			c1,0,2.1,0.1,3,0.4c-0.1,0.6-0.5,0.7-1,0.7h-1.2c-2.5,0.4-5.2,0.4-7.9,0.4h-5.4c-2,0-3.8,0.1-5.8,0.1h-2.5c-2.6,0-5.2,0-7.1,0.9
			c-0.7-0.2-1.6-0.4-2.5-0.4c-1,0-1.8,0.2-2.2,1.1c-7.1-1.5-6.8-10.6-10.7-15.4c0.6-0.1,1-1,1-1.7c0-0.6-0.2-1.2-1.1-1.2h-0.5
			c3.2-3.9,7-7,8.7-12.3c0.2,0.2,0.4,0.6,0.4,1c0,0.7-0.4,1.7-0.4,2.5c0,0.5,0.2,0.9,0.7,1h0.1c1,0,2-2.6,2.5-4.1
			c1.5-4.3,3.4-10.6,3.6-14.5c-3,0.9-2.5,5.2-4.2,7.4c-0.5-0.1-0.7-0.4-0.7-0.6c0-0.6,0.7-1.5,1-1.8c0.2-3,1.1-6.4,1.6-8.7V148
			c0-0.5,0.9-0.2,0.9-0.7V145c0-0.7,0.1-1.5,0.2-2c-1.5-2-5.1-1.7-7.2-2.8c-0.4-2,0.8-4.5-0.7-5.3c-1,0.1-6.2,5.1-7.4,5.2
			c0,0-0.1-0.1-0.1-0.2c0-0.5,5.4-5,5.9-5.6c-0.2-0.1-0.6-0.1-0.9-0.1c-2,0-7.1,5.4-9,5.9c0.4-1.5,5.7-5.8,6.7-6.7l3.2-2.3h-0.6
			c-4.2,0-10.3,8-14,9.4c1.7-2.6,9.5-9.7,12.4-11.6c1.5-1,3.3-2,3.3-3.7c0-0.5-0.1-1.1-0.5-1.7c1.7-1.7,3-3.9,4.4-5.7
			c0.7,0.4,1.5,0.5,2.2,0.5c3.2,0,6.2-2.3,9-2.3c0.6,0,1.1,0.1,1.7,0.4c-1.2,1.1-4.9,1.7-4.9,3.7c0,0.4,0.1,0.7,0.4,1.1
			c8.1-3.7,15.5-8.1,24.6-10.7c-0.4-0.6-1-0.9-1.6-0.9c-0.9,0-1.7,0.4-2.5,0.5c-1.5,0.2-2.7,0.6-4.1,1.1c-2.7,0.9-5.3,2.1-7.8,2.3
			c1-1.1,2.8-1.8,4.4-2.6c4.6-2,12.1-4.1,18.8-4.1c4.9,0,9.5,1,12.4,3.9c1.6,1.6,2.2,3.6,4.1,5.3c1.1,2.6,1.5,6.2,2.1,8v1.5
			c0,3.3-0.6,5.5-1.8,8c-1.4,1.1-1.7,3.3-3.3,4.2v0.2c0,1.2-1.5,1.5-1.5,2.5v0.2c-3.3,1.6-5.2,4.3-7.5,6.7l-2.1,0.7
			c1.5-3.7,5.3-4.9,7-8.4c-3.7,0.6-6.9,4.1-10.3,6.7c-1.5,1.1-2.7,1.8-2.7,3.8v0.7c9.1,5.2,19.2,9.5,21.7,21.3
			c-0.6,3.4-0.1,9-2.6,11.1v0.2C569.8,184.1,569.4,184.3,569.4,184.9L569.4,184.9L569.4,184.9z M514.6,163c-0.2,0-0.5-0.1-0.7-0.1
			v-0.6c0-1,0.5-1.5,0.9-2.1c0.4,0.2,0.7,0.5,0.9,0.9v0.2c0,0.7-0.6,0.9-0.6,1.6v0.1H514.6L514.6,163z M562.9,175.9
			c0-3.9-4.4-6.6-7.5-8.1c-0.9-0.5-1.6-1.2-2.3-1.6c-1.7-0.6-4.3-1-6.8-1c-1.8,0-3.7,0.2-4.9,0.7c-2.6,1-3.9,3.4-7.1,3.4h-0.7
			c-2-3.6-5.5-5.2-6.7-9.4c-1.5,1.2-1.1,3.1-1.4,4.8c-0.2,1-1,1.7-1.1,3c-0.1,0.7-0.2,1.6-0.2,2.3c0,0.9,0.1,1.6,0.1,2.5
			c-1.2,2-2,4.4-2.3,7c7.9,2.1,19.1,1.7,28.4,2.1c1.2,0,2.5,0.5,3.7,0.5h0.5c4.4,0,8.4-1.7,8.4-5.9v-0.3H562.9z M549.7,137.1
			c4.6-3.6,9.9-7.1,12.3-13.1c-0.9-1.2-2.8-1.5-4.9-1.5c-1,0-2,0.1-2.8,0.1c-9.1,0.6-18.3,4.4-23.2,9.5c1.1,3.4,4.2,7,4.2,11.5
			c0,0.4-0.1,0.9-0.1,1.2c-0.1,0.7-0.6,1.7-0.6,2.2v0.2c3.2-0.2,5.5-3,7.9-4.7L549.7,137.1z"/>
		<path class="st1" d="M638.7,184c0-2.6,2.3-2.7,3-4.4h-0.9c-3.4,0-6.5,2.7-9.6,4.4c-1.5,0.9-3.1,2.1-4.8,3
			c-2.8,1.4-5.9,1.6-7.6,4.3c0.2,0.6,0.5,0.9,0.9,0.9c0.6,0,1.4-0.5,2-0.7c3.4-1.2,5.9-2.7,9.5-2.7c-2.8,2.2-6,3-9.4,4.6
			c-2.8,1.2-4.3,2.2-7.8,3c-2.6,0.6-5.4,0.9-8.2,0.9c-3.3,0-6.5-0.5-9.1-1.7c-3-1.5-5.3-4.4-7.9-6.5c-0.9-0.6-1.8-0.7-2.5-1.5
			c-1.1-1.1-1.4-2.7-3.1-3.6c-1.1-2.8-2.1-5.5-3.7-7.5v-1.2c-0.2-0.5-0.7-0.6-1.1-1.1c-1.5-4.8-2.2-10.1-2.2-15.5
			c0-8.9,2-18,5.5-24.6c3.2-6,6.3-11.6,10-14.8c0.6-0.4,1.6-0.7,2.5-1.1c2.2-2.7,5.8-4.7,9.6-6.7c3.4-1.8,7.1-4.2,11.5-4.6
			c1.2-0.1,3,0,4.4-0.2h0.7c2.1,0,4.3,0.7,4.9,2.1h-0.5c-1.8,0-4.2-0.5-6.5-0.5h-0.6c-4.1,0.4-7.9,1.7-9.5,4.2h0.7
			c2,0,4.2-1.1,6.5-1.4c0.7-0.1,1.4-0.1,2-0.1c5.1,0,9.2,2.3,12.8,4.2c0.2-0.5,1.1-0.4,1.4-0.9v-0.5c0-2.2-2.7-1.7-3.3-3.6h0.2
			c2.3,0,4.1,1.6,5.3,3c5.2,5.7,7.4,15.8,8.2,25.2c0,0.2,0,0.4-0.1,0.4s-0.4-0.5-0.6-0.5c-1.6,2.1-2.3,5.3-4.2,7.1
			c0-0.1-0.1-0.4-0.1-0.5c0-0.4,0.2-0.6,0.2-0.9c0,0-0.1-0.1-0.1-0.2c-1.7,0.1-2.2,2.3-2.6,3.1c-0.1,0.1-0.2,0.1-0.4,0.1
			s-0.4-0.2-0.4-0.5c0-0.1,0-0.1,0-0.2c0-0.2,0-0.4-0.1-0.5c-1.4,0.2-2.6,0.7-2.8,2.2c-3.4-1.5-6.8-1.8-8.9-4.4
			c-1.4-1.7-1.8-3.9-2.7-6c-2.1-2.7-2.2-7.3-6.8-7.3h-0.6c-2.5,0-5.4,1.1-7,1.7c-6.5,2.7-14,11.7-16.6,17.9
			c-1.2,2.8-2.1,6.2-2.1,9.2c0,0.7,0,1.5,0.1,2.1c-0.2,0.5-0.4,1.1-0.4,1.7c0,2.2,1.4,5.3,1.4,7.6v0.4c2,2.5,3.8,5.2,5.8,7.6
			c3.6,1,6.6,3.3,10.8,3.3c3.8,0,9.5-2,12.7-3.3c11.1-4.6,20.4-12.8,27.7-20.6c1.6-1.8,3.3-3.7,4.9-5.7c1.5-2,6.8-9.7,8.8-11.2v0.1
			c0,2.5-7.1,8.7-7.2,11.9c1.2-0.4,5.3-6.9,7.5-7.1c-0.9,3.1-7.2,8.7-7.2,12.4c0,0.2,0.1,0.6,0.1,1c1.7-0.1,4-6.9,6-7.5v0.4
			c0,1.4-3.8,6.4-3.8,8.4c0,0.6,0.1,1.2,0.5,1.7c0.1,0.2,0.2,0.2,0.4,0.2s2.9-5,3.4-5h0.1c-0.2,0.6-2,5.1-2,5.7c0,2,0.2,4.2,0.2,6.3
			c0,0.5,0,1.1-0.2,1.8c-6.2,3.7-11.3,9.5-17,13.1L638.7,184L638.7,184z M635.3,186.5c0-0.4-0.4-0.4-0.4-0.9v-0.1
			c0.7-0.2,1.7-1.2,2.5-1.2c0.4,0,0.6,0.1,0.9,0.6c-0.9,0.7-2,1.2-3,1.7V186.5z"/>
		<path class="st1" d="M667.9,134.2c0-1.2,1.2-1.2,2.2-1.4c0.5-1,0.9-2,2.2-2.1c0.2-1.8,2.3-2.7,2.3-4.1v-0.1
			c-3.1,3.7-7.1,7.3-13.3,7.3c3.7-2.7,9.4-3.3,10.6-8.5c-1.5,0-2.7,1.7-4.2,2.1c-0.4,0.1-0.9,0.1-1.2,0.1c-4.6,0-8.1-4.2-8.6-8
			c-0.1-1.1-0.2-2.3-0.2-3.6c0-2.6,0.4-5.2,1.7-6.4c0.4-0.2,1.2-0.6,1.7-1c1.4-0.9,2.5-2.2,3.7-2.7c0.6-0.4,2.3-1.1,3.7-1.1
			c0.7,0,1.4,0.2,1.6,0.9c-1.6,1.1-4.4,0.9-5.2,2.8c0.1,0.7,0.5,1.1,1,1.6c0.9-0.5,2-0.7,3-0.7c1.7,0,3.3,0.6,4.4,1.7
			c0.4-0.1,0.6-0.5,1-0.6c0-1.4-1.1-1.6-1.1-3c3.2,0.5,3.6,3.8,4.8,6.9c0.6,1.6,1.4,3.1,1.5,4.4v1.1c0,7.5-6.9,13.2-11.6,14.7
			L667.9,134.2L667.9,134.2z"/>
		<path class="st1" d="M697.1,192.5c-1.2,0-2.6-0.1-3.8-0.1c-1.8,0-3.3,0.2-4.1,1.8c1.1,2.3,6.2,0.2,7.8,2.6
			c-1.8,0.2-4.1,0.5-6.3,0.5c-5.3,0-10.6-1.4-10.6-6.2c0-0.6,0.1-1.2,0.2-1.8c0-0.5-0.4-0.7-0.7-1c0.2-0.6,0.6-1.1,0.7-1.7
			c-0.5-0.5-1-1.1-1-1.9c0-0.9-2.8-1-2.8-2v-0.3c0-0.6-0.5-1.2-0.6-1.8c0-2.8,1.7-7.6,3.3-8.6c0.7-0.5,5.3-1.6,6.2-1.8
			c5.5-1.7,16.1-8.1,22.6-8.3c-4.3,1.7-13.6,5.2-16.8,8.6c3.3-0.6,9.7-5.2,13.8-5.4c-1.1,1.1-6.6,3.2-8.1,4.1
			c-1.2,0.7-3.3,1.1-3.8,2.8h0.2c0.9,0,4-2.2,4.9-2.2c0.2,0,0.4,0.1,0.6,0.2c-0.5,0.7-3.6,2-3.6,3.1v0.1c0,1.7,1.7,2.1,3.7,2.1
			c2.1,0,4.6-0.4,5.9-0.5c10.5-0.9,25.1-0.1,32.6-3.2c-1.5-2.2-4.2-3.2-6.5-4.2c-2.3-1.1-5.1-2.2-7.5-3.2c-4.8-1.7-9.1-4.4-13.5-7.3
			c-4.1-2.6-8.6-5.2-12.4-8.9c-4.6-4.3-8-9.4-8-17.7v-0.9c0-6.2,3.6-13.1,7.4-16.9c5.1-5.2,11.9-8,19.7-8c3,0,5.9,0.4,9,1.2
			c2.6,0.7,4.3,2,6.9,3.3c1.8,0.9,3.8,1.1,4.6,3.7c-3.2-0.5-4.1-3-7.5-3h-0.5c0.2,1.7,2.2,2.3,3.4,3.3s2.7,2.2,3.8,3.4
			c1.7,1.8,2.8,4.6,4.6,6.5c1.2,1.5,2.7,3.2,4.7,3.4c0-0.2,0.1-0.5,0.1-0.7c0-2.5-2.7-3.4-2.7-6v-0.4h0.1c1.1,0,2.2,2.2,3.1,3.4
			c1,1.6,2.2,3.2,3,4.7h1.5c-0.5,1-1,2.2-1,3.8h0.1c0.1,0,0.4-0.2,0.9-0.2c0.1,0,0.2,0,0.4,0.1v0.1c0,0.6-0.9,0.9-1.1,1.1
			c-0.5,0.7-2.1,3.6-2.2,4.4c0,0.2-0.1,0.4-0.1,0.6c0,0.6,0.2,1.2,0.2,1.8c0,0.2-0.1,0.5-0.1,0.7c-0.7,3.2-5.5,4.4-5.7,7.8
			c-0.5-0.1-0.5-0.5-0.5-1V146h-0.7c-3.7,0-7.3-1.7-8.6-4.3c-1.5-3-1.8-6-3.7-8.5c-3.2-4.2-8-8.5-14-8.5h-0.9
			c-4.9,0-11.6,2.7-11.6,9.4c0,0.5,0,1.1,0.1,1.7c0.6,3.6,5.3,7.5,8.4,10c3.3,2.6,6.9,4.3,10.6,6.3c3.4,1.8,7.1,3.9,10.7,5
			c3.9,1.4,7.9,3.7,10.6,6c3.4,3.1,6,7.8,6,12.9c0,1.1-0.1,2.2-0.4,3.3c-0.6,0.6-1.5,1.5-1.5,2.7c0,0.2,0,0.5,0.1,0.7
			c-1.5,0.6-2.6,2-3.9,2.8c-1.3,0.8-3,1.4-4.1,2.6c-8.7,1.2-18,4.9-27.3,6.7c-2.3,0.4-4.6,1.1-6.9,1.1c-0.6,0-1.1,0-1.7-0.1
			c1-1.1,2.6-1.7,4.1-2c5.3-1.1,11.3-1.7,15.4-4.3c-0.9-0.2-1.7-0.4-2.6-0.4c-3,0-6,1.2-9.2,1.6c-4.2,0.4-8.6,1.2-12.7,1.2h-0.7
			V192.5z M740.1,117.1c0-0.7,0.2-1,0.5-1c0.7,0,2,1.5,2.6,2.1c-0.1,0.6-0.5,0.9-1,0.9c-0.9,0-2.1-1.1-2.1-1.8V117.1z"/>
	</g>
	<path class="st1" d="M658.2,140.1c-0.1-0.2-0.1-0.4-0.1-0.6c0-1,0.6-2,1.5-2c0.2,0,0.5,0.1,0.7,0.4
		C659.9,139,659.5,140,658.2,140.1z"/>
	<path class="st1" d="M475.9,186.2c-0.6,0-1.1-0.2-1.4-0.7c0.1-0.5,0.4-0.7,0.7-0.7c0.7,0,1.6,0.6,1.7,1
		C476.8,186,476.4,186.2,475.9,186.2z"/>
	<path class="st1" d="M693.6,169.4c0-0.9,0.7-1.4,1.5-1.4c0.2,0,0.6,0.1,0.9,0.4c-0.2,1-1.2,1.4-2.3,1.4v-0.4H693.6z"/>
</g>
</svg>
