<?xml version="1.0" encoding="utf-8"?>
<!-- Generator: Adobe Illustrator 25.0.0, SVG Export Plug-In . SVG Version: 6.00 Build 0)  -->
<svg version="1.1" id="レイヤー_1" xmlns="http://www.w3.org/2000/svg" xmlns:xlink="http://www.w3.org/1999/xlink" x="0px"
	 y="0px" viewBox="0 0 174.7 34.4" style="enable-background:new 0 0 174.7 34.4;" xml:space="preserve">
<style type="text/css">
	.st0{fill:url(#SVGID_1_);}
	.st1{fill:#1C50A1;}
	.st2{fill:url(#SVGID_2_);}
	.st3{fill:url(#SVGID_3_);}
	.st4{fill:url(#SVGID_4_);}
	.st5{fill:url(#SVGID_5_);}
	.st6{fill:#AF5236;}
</style>
<g>
	<g>
		<linearGradient id="SVGID_1_" gradientUnits="userSpaceOnUse" x1="82.4719" y1="34.5925" x2="82.4719" y2="-0.737">
			<stop  offset="0.2" style="stop-color:#007E5C"/>
			<stop  offset="0.2018" style="stop-color:#098362"/>
			<stop  offset="0.2119" style="stop-color:#379A7F"/>
			<stop  offset="0.2233" style="stop-color:#62B09B"/>
			<stop  offset="0.2355" style="stop-color:#88C3B3"/>
			<stop  offset="0.2488" style="stop-color:#A8D3C8"/>
			<stop  offset="0.2634" style="stop-color:#C4E1D9"/>
			<stop  offset="0.28" style="stop-color:#DAECE7"/>
			<stop  offset="0.2994" style="stop-color:#EBF5F2"/>
			<stop  offset="0.3233" style="stop-color:#F6FBF9"/>
			<stop  offset="0.3568" style="stop-color:#FDFEFE"/>
			<stop  offset="0.45" style="stop-color:#FFFFFF"/>
			<stop  offset="0.4636" style="stop-color:#FEF8F0"/>
			<stop  offset="0.4899" style="stop-color:#FCE6C7"/>
			<stop  offset="0.5263" style="stop-color:#F8C886"/>
			<stop  offset="0.5709" style="stop-color:#F3A02E"/>
			<stop  offset="0.58" style="stop-color:#F2971B"/>
		</linearGradient>
		<path class="st0" d="M75.5,34c-1.6,0-2.8-0.5-3.6-1.5c-0.8-1-1-2.3-0.6-3.9c0.3-1,0.7-1.9,1.4-2.6c0.9-1,2.4-2,4.2-2.9
			c1.9-0.9,4.9-2,8.9-3.2l0.2-0.7c0.5-2,0.5-3.3,0-4c-0.5-0.7-1.4-1-2.6-1c-0.9,0-1.7,0.2-2.5,0.7c-1.1,0.7-1.8,1.6-2.3,2.8
			c-0.4,0.9-0.8,2.1-2.1,2.3c-0.1,0-0.2,0-0.2,0c-0.5,0-0.8-0.2-1.2-0.6c-0.3-0.4-0.4-1-0.2-1.7c0.3-1.3,1.4-2.5,3.1-3.6
			c1.7-1.1,3.9-1.6,6.5-1.6c2.1,0,2.7,0.3,3.8,0.9c0.8,0.5,1.4,1.3,1.6,2.4c0.1,0.7,0,1.9-0.5,3.8l-1.8,6.9c-0.5,2-0.9,3.5-0.9,3.9
			c0,0.5,0.1,0.7,0.1,0.7c0.1,0.1,0.3,0.2,0.5,0.2c0.2,0,0.4,0,0.6-0.1c0.3-0.2,2.8-2,4.1-3l0.6-0.4l0.9,0l-3.3,2.9
			c-2.4,2.3-3.5,3-5.1,3c-0.9,0-1.5-0.3-1.8-0.8c-0.3-0.5-0.5-0.9-0.3-1.9c-2.5,1.5-4,2.3-4.7,2.6C77.5,33.8,76.5,34,75.5,34z
			 M85.6,21.5c-2.1,0.6-4.1,1.3-5.7,2c-1.6,0.7-2.9,1.4-3.7,2.1c-0.8,0.7-1.3,1.5-1.5,2.3c-0.3,1.1-0.1,1.9,0.5,2.6
			c0.6,0.7,1.4,1,2.4,1c1.4,0,3.4-0.8,6.1-2.2L85.6,21.5z"/>
		<path class="st1" d="M84.7,12.6c2,0,2.6,0.2,3.7,0.9c0.8,0.5,1.3,1.3,1.5,2.3c0.1,0.6,0,1.8-0.5,3.7l-1.8,6.9
			c-0.5,1.9-0.9,3.5-0.9,4c0,0.4,0,0.7,0.2,0.9c0.1,0.1,0.3,0.2,0.6,0.2c0.3,0,0.5-0.1,0.7-0.2c0.4-0.2,3.5-2.5,4.7-3.4l0.4,0
			l-2.9,2.6c-2.4,2.2-3.4,2.9-5,2.9c-0.8,0-1.4-0.3-1.7-0.7c-0.3-0.5-0.5-1-0.2-2.2c-2.7,1.6-4.4,2.5-5,2.8c-1,0.4-1.9,0.6-2.9,0.6
			c-1.5,0-2.7-0.5-3.4-1.4c-0.7-1-0.9-2.2-0.5-3.8c0.3-1,0.7-1.8,1.4-2.6c0.9-1,2.3-1.9,4.2-2.8c1.9-0.9,4.9-2,9-3.2l0.2-0.8
			c0.5-2,0.5-3.4,0-4.1c-0.5-0.7-1.4-1.1-2.8-1.1c-1,0-1.9,0.3-2.6,0.7c-1.4,0.9-2.1,2.2-2.4,2.9c-0.3,0.8-0.8,2-1.9,2.1
			c-0.1,0-0.2,0-0.2,0c-0.5,0-0.8-0.2-1-0.6c-0.3-0.4-0.3-0.9-0.2-1.6c0.3-1.3,1.3-2.4,3-3.5C80,13.1,82.1,12.6,84.7,12.6
			 M85.9,21.2c-3.1,0.9-5.1,1.7-6,2.1c-1.7,0.7-2.9,1.4-3.7,2.1c-0.8,0.7-1.4,1.5-1.6,2.4c-0.3,1.1-0.1,2,0.5,2.8
			c0.6,0.7,1.5,1.1,2.5,1.1c1.4,0,3.5-0.8,6.2-2.3L85.9,21.2 M84.7,12.2c-2.6,0-4.8,0.6-6.6,1.6c-1.8,1.1-2.8,2.3-3.2,3.7
			c-0.2,0.8-0.1,1.4,0.2,1.9c0.2,0.3,0.6,0.7,1.3,0.7c0.1,0,0.2,0,0.3,0c1.4-0.2,1.9-1.5,2.2-2.3l0-0.1c0.5-1.2,1.2-2.1,2.2-2.8
			c0.7-0.5,1.5-0.7,2.4-0.7c1.2,0,2,0.3,2.5,1c0.3,0.5,0.5,1.5-0.1,3.8l-0.2,0.6c-4,1.2-7,2.3-8.9,3.2c-1.9,0.9-3.3,1.9-4.3,2.9
			c-0.7,0.8-1.2,1.7-1.5,2.7c-0.4,1.7-0.2,3,0.6,4.1c0.8,1,2.1,1.6,3.7,1.6c1,0,2.1-0.2,3.1-0.6c0.6-0.2,2-1,4.4-2.4
			c-0.1,0.8,0.1,1.2,0.4,1.6c0.4,0.6,1.1,0.9,2,0.9c1.8,0,3-0.9,5.3-3l2.9-2.6l0.7-0.7l-1,0l-0.4,0l-0.1,0l-0.1,0.1L92.2,28
			c-1.1,0.8-3.8,2.8-4.1,3c-0.2,0.1-0.4,0.1-0.6,0.1c-0.2,0-0.3-0.1-0.3-0.1c0,0-0.1-0.1-0.1-0.6c0-0.4,0.4-1.9,0.9-3.9l1.8-6.9
			c0.5-2,0.7-3.2,0.5-3.9c-0.2-1.1-0.8-2-1.7-2.5C87.4,12.5,86.6,12.2,84.7,12.2L84.7,12.2z M77.5,31.4c-1,0-1.7-0.3-2.2-1
			c-0.5-0.6-0.7-1.4-0.4-2.4c0.2-0.8,0.7-1.6,1.5-2.2c0.8-0.7,2-1.4,3.6-2.1c1.6-0.6,3.4-1.3,5.4-1.9l-1.9,7.4
			C80.8,30.6,78.8,31.4,77.5,31.4L77.5,31.4z"/>
	</g>
	<g>
		<linearGradient id="SVGID_2_" gradientUnits="userSpaceOnUse" x1="10.3191" y1="34.5988" x2="10.3191" y2="-0.5243">
			<stop  offset="0.2" style="stop-color:#007E5C"/>
			<stop  offset="0.2018" style="stop-color:#098362"/>
			<stop  offset="0.2119" style="stop-color:#379A7F"/>
			<stop  offset="0.2233" style="stop-color:#62B09B"/>
			<stop  offset="0.2355" style="stop-color:#88C3B3"/>
			<stop  offset="0.2488" style="stop-color:#A8D3C8"/>
			<stop  offset="0.2634" style="stop-color:#C4E1D9"/>
			<stop  offset="0.28" style="stop-color:#DAECE7"/>
			<stop  offset="0.2994" style="stop-color:#EBF5F2"/>
			<stop  offset="0.3233" style="stop-color:#F6FBF9"/>
			<stop  offset="0.3568" style="stop-color:#FDFEFE"/>
			<stop  offset="0.45" style="stop-color:#FFFFFF"/>
			<stop  offset="0.4636" style="stop-color:#FEF8F0"/>
			<stop  offset="0.4899" style="stop-color:#FCE6C7"/>
			<stop  offset="0.5263" style="stop-color:#F8C886"/>
			<stop  offset="0.5709" style="stop-color:#F3A02E"/>
			<stop  offset="0.58" style="stop-color:#F2971B"/>
		</linearGradient>
		<path class="st2" d="M0.2,33.2l0.2-0.8h0.5c1.2,0,2.8-0.3,3.6-1c0.5-0.4,1-1.6,1.4-3.3l5.8-22.8c0.4-1.5,0.5-2.5,0.5-2.9
			c-0.1-0.3-0.3-0.6-0.7-0.8C11,1.2,9.8,1.1,9,1.1H8.5l0.2-0.8h11.7l-0.2,0.8h-0.1c-1.4,0-3.2,0.4-4,1c-0.5,0.4-1,1.6-1.4,3.3
			L8.8,28.2c-0.4,1.5-0.5,2.5-0.5,2.9c0.1,0.3,0.3,0.6,0.7,0.8c0.5,0.3,2.4,0.5,3.3,0.5h0.2l-0.2,0.8H0.2z"/>
		<path class="st1" d="M20.2,0.5l-0.1,0.4c-1.3,0-3.3,0.4-4.1,1.1c-0.5,0.5-1,1.6-1.5,3.4L8.7,28.1c-0.4,1.5-0.5,2.5-0.5,3
			c0.1,0.4,0.3,0.7,0.8,0.9c0.6,0.4,2.6,0.5,3.4,0.5L12.3,33H0.5l0.1-0.4h0.3c1.4,0,2.9-0.4,3.7-1.1c0.5-0.5,1-1.6,1.5-3.4l5.8-22.8
			c0.4-1.5,0.5-2.5,0.5-3c-0.1-0.4-0.3-0.7-0.8-0.9C11,1,9.8,0.9,9,0.9H8.7l0.1-0.4H20.2 M20.6,0.1h-0.5H8.8H8.5L8.5,0.4L8.4,0.8
			L8.2,1.2h0.5H9c0.8,0,1.9,0.2,2.4,0.5C11.8,1.9,12,2.2,12,2.4c0.1,0.3,0,1-0.4,2.8L5.7,28c-0.5,2.1-1,2.9-1.3,3.2
			c-0.7,0.6-2.1,1-3.5,1H0.6H0.3l-0.1,0.3l-0.1,0.4L0,33.3h0.5h11.8h0.3l0.1-0.3l0.1-0.4l0.1-0.5h-0.5c-0.8,0-2.7-0.2-3.2-0.5
			c-0.4-0.2-0.6-0.4-0.6-0.7c-0.1-0.3,0-1,0.4-2.8l5.8-22.8c0.5-2.1,1-2.9,1.4-3.2c0.7-0.6,2.5-1,3.8-1h0.3L20.4,1l0.1-0.4L20.6,0.1
			L20.6,0.1z"/>
	</g>
	<g>
		<linearGradient id="SVGID_3_" gradientUnits="userSpaceOnUse" x1="25.2952" y1="34.6083" x2="25.2952" y2="-0.7468">
			<stop  offset="0.2" style="stop-color:#007E5C"/>
			<stop  offset="0.2018" style="stop-color:#098362"/>
			<stop  offset="0.2119" style="stop-color:#379A7F"/>
			<stop  offset="0.2233" style="stop-color:#62B09B"/>
			<stop  offset="0.2355" style="stop-color:#88C3B3"/>
			<stop  offset="0.2488" style="stop-color:#A8D3C8"/>
			<stop  offset="0.2634" style="stop-color:#C4E1D9"/>
			<stop  offset="0.28" style="stop-color:#DAECE7"/>
			<stop  offset="0.2994" style="stop-color:#EBF5F2"/>
			<stop  offset="0.3233" style="stop-color:#F6FBF9"/>
			<stop  offset="0.3568" style="stop-color:#FDFEFE"/>
			<stop  offset="0.45" style="stop-color:#FFFFFF"/>
			<stop  offset="0.4636" style="stop-color:#FEF8F0"/>
			<stop  offset="0.4899" style="stop-color:#FCE6C7"/>
			<stop  offset="0.5263" style="stop-color:#F8C886"/>
			<stop  offset="0.5709" style="stop-color:#F3A02E"/>
			<stop  offset="0.58" style="stop-color:#F2971B"/>
		</linearGradient>
		<path class="st3" d="M26.1,33.2l0.2-0.7h0.1c1.1,0,1.8-0.1,2.3-0.4c0.5-0.3,0.8-0.7,1.1-1.2c0.1-0.1,0.2-0.6,0.6-2l2.2-8.7
			c0.5-1.8,0.5-3.1,0.2-3.9c-0.3-0.8-1-1.1-2.2-1.1c-1.9,0-4,0.9-6.3,2.8l-2.8,11c-0.4,1.7-0.4,2.2-0.4,2.4c0.1,0.4,0.3,0.7,0.6,0.8
			c0.3,0.2,0.7,0.3,1.9,0.3h0.2l-0.2,0.7h-9.4l0.2-0.7h1.1c0.9,0,1-0.1,1.3-0.5c0.1-0.1,0.2-0.2,0.2-0.3c0.5-0.5,0.9-1.5,1.3-2.9
			l1.9-7.5c0.6-2.5,1-4.3,1.1-4.8c0-0.5-0.1-0.8-0.2-0.9c-0.2-0.2-0.4-0.2-0.8-0.2c-0.3,0-0.6,0.1-1,0.2l-0.6,0.2L18.6,15l6.2-2.5
			l0.7,0h0.2l-1,4c3.1-2.5,5.8-3.8,8.2-3.8c0,0,0,0,0,0c0.1,0,0.7,0,1.1,0.2c1.2,0.6,1.9,1.7,2.1,3.4c0.1,1-0.1,2.4-0.5,4.1
			l-2.2,8.6c-0.3,1.2-0.4,2.1-0.3,2.5c0.1,0.3,0.3,0.6,0.6,0.7c0.3,0.2,0.6,0.3,1.7,0.3h0.2l-0.2,0.7H26.1z"/>
		<path class="st1" d="M25.5,12.6l-1.1,4.3c3.3-2.9,6.2-4.2,8.5-4.2c0,0,0,0,0,0c0.1,0,0.7,0,1,0.2c0.8,0.4,1.8,1.1,2,3.3
			c0.1,0.9,0,2.2-0.5,4.1l-2.2,8.6C33,30.1,32.9,31,33,31.4c0.1,0.4,0.3,0.7,0.6,0.9c0.3,0.2,0.7,0.3,1.7,0.3L35.3,33h-9l0.1-0.4h0
			c1,0,1.8-0.1,2.3-0.4c0.5-0.3,0.9-0.7,1.2-1.3c0.1-0.2,0.3-0.9,0.6-2.1l2.2-8.7c0.5-1.8,0.6-3.2,0.2-4c-0.3-0.8-1.1-1.2-2.3-1.2
			c-1.9,0-4.1,1-6.5,2.9l-2.8,11.1C21,30.2,20.9,31,21,31.4c0.1,0.4,0.3,0.7,0.7,0.9c0.3,0.2,0.8,0.3,2,0.3L23.6,33h-9l0.1-0.4h0.9
			c1.1,0,1.1-0.3,1.7-0.8c0.5-0.5,1-1.5,1.4-3l1.9-7.5c0.6-2.4,1-4.3,1.1-4.9c0-0.5-0.1-0.9-0.3-1.1c-0.2-0.2-0.5-0.3-0.9-0.3
			c-0.5,0-0.8,0.2-1.5,0.4l-0.1-0.4l6.1-2.5H25.5 M26,12.2h-0.5h-0.6h-0.1l-0.1,0l-6.1,2.5l-0.3,0.1l0.1,0.3l0.1,0.4l0.1,0.4
			l0.4-0.1c0.2-0.1,0.3-0.1,0.4-0.1c0.4-0.1,0.6-0.2,0.9-0.2c0.3,0,0.6,0.1,0.7,0.2c0.1,0.1,0.2,0.2,0.2,0.8c0,0.4-0.3,1.8-1.1,4.8
			l-1.9,7.5c-0.4,1.4-0.8,2.3-1.3,2.8c-0.1,0.1-0.2,0.2-0.3,0.3c-0.3,0.3-0.4,0.4-1.1,0.4h-0.9h-0.3l-0.1,0.3l-0.1,0.4l-0.1,0.5h0.5
			h9h0.3l0.1-0.3l0.1-0.4l0.1-0.5h-0.5c-1.1,0-1.5-0.1-1.8-0.2c-0.3-0.1-0.4-0.4-0.5-0.7c0-0.1-0.1-0.5,0.4-2.3l2.8-11
			c2.3-1.8,4.4-2.7,6.2-2.7c1.1,0,1.7,0.3,2,1c0.3,0.8,0.2,2-0.3,3.8l-2.2,8.7c-0.4,1.5-0.5,1.9-0.6,2c-0.3,0.5-0.6,0.9-1.1,1.1
			c-0.3,0.2-0.9,0.4-2.1,0.4h-0.3L26,32.5l-0.1,0.4l-0.1,0.5h0.5h9h0.3l0.1-0.3l0.1-0.4l0.1-0.5h-0.5c-1,0-1.3-0.1-1.6-0.3
			c-0.3-0.2-0.4-0.4-0.5-0.6c-0.1-0.3-0.1-0.9,0.3-2.4l2.2-8.6c0.5-1.8,0.6-3.2,0.5-4.2c-0.2-1.8-0.9-3-2.2-3.5
			c-0.4-0.2-1-0.2-1.2-0.2c-2.3,0-4.9,1.2-7.9,3.5l0.8-3.2L26,12.2L26,12.2z"/>
	</g>
	<g>
		<linearGradient id="SVGID_4_" gradientUnits="userSpaceOnUse" x1="50.6955" y1="34.5871" x2="50.6955" y2="-0.5227">
			<stop  offset="0.2" style="stop-color:#007E5C"/>
			<stop  offset="0.2018" style="stop-color:#098362"/>
			<stop  offset="0.2119" style="stop-color:#379A7F"/>
			<stop  offset="0.2233" style="stop-color:#62B09B"/>
			<stop  offset="0.2355" style="stop-color:#88C3B3"/>
			<stop  offset="0.2488" style="stop-color:#A8D3C8"/>
			<stop  offset="0.2634" style="stop-color:#C4E1D9"/>
			<stop  offset="0.28" style="stop-color:#DAECE7"/>
			<stop  offset="0.2994" style="stop-color:#EBF5F2"/>
			<stop  offset="0.3233" style="stop-color:#F6FBF9"/>
			<stop  offset="0.3568" style="stop-color:#FDFEFE"/>
			<stop  offset="0.45" style="stop-color:#FFFFFF"/>
			<stop  offset="0.4636" style="stop-color:#FEF8F0"/>
			<stop  offset="0.4899" style="stop-color:#FCE6C7"/>
			<stop  offset="0.5263" style="stop-color:#F8C886"/>
			<stop  offset="0.5709" style="stop-color:#F3A02E"/>
			<stop  offset="0.58" style="stop-color:#F2971B"/>
		</linearGradient>
		<path class="st4" d="M50,34.2l0.7-2.6c-1.2,0.9-2.3,1.5-3.4,1.9c-1.2,0.5-2.4,0.7-3.6,0.7c-1.6,0-3.7-0.8-5-2.9
			c-1.2-2-1.4-4.3-0.7-7.2c0.8-3.2,2.4-5.8,4.9-8c2.6-2.4,5.4-3.7,8-3.7c1.9,0,3.3,0.5,4.3,1.5l0.9-3.4c0.7-2.7,1.4-5.8,1.4-6.3
			c0-0.5-0.1-0.8-0.2-0.9C57.1,3.1,56.9,3,56.5,3c-0.4,0-3,0.7-3.9,1l-0.1,0l-0.3-0.5l8.7-3.4l1,0l-6.6,25.5
			c-0.6,2.3-0.9,3.8-0.9,4.3c0,0.5,0.1,0.8,0.2,1c0.1,0.1,0.3,0.2,0.4,0.2c0.1,0,0.2,0,0.3,0c0.4-0.1,3.6-1.5,6.5-2.8l0.3-0.2l0.7,0
			l0.8,0l-12.6,6H50z M50.3,14.1c-1.4,0-2.8,0.6-4.2,1.8c-1.8,1.5-3.2,3.8-3.9,6.8c-0.8,3-0.7,5.3,0.3,6.9c1,1.6,2.3,2.4,4,2.4
			c1.4,0,3-0.7,4.6-2l2.7-10.7c0.2-1,0.1-1.9-0.1-2.7c-0.3-0.8-0.7-1.4-1.4-1.8C51.7,14.3,51,14.1,50.3,14.1z"/>
		<path class="st1" d="M61.7,0.4l-6.5,25.3c-0.6,2.4-0.9,3.8-0.9,4.3c0,0.5,0.1,0.9,0.3,1.1c0.2,0.1,0.3,0.2,0.6,0.2
			c0.1,0,0.2,0,0.3,0c0.4-0.1,3.7-1.5,6.9-2.9l0.6,0L51.1,34h-0.8l0.7-2.9c-1.3,1-2.6,1.8-3.7,2.2c-1.2,0.4-2.3,0.7-3.5,0.7
			c-1.6,0-3.6-0.8-4.8-2.8c-1.2-1.9-1.4-4.2-0.6-7.1c0.7-2.9,2.2-5.5,4.8-8c2.6-2.4,5.4-3.6,7.8-3.6c2,0,3.4,0.6,4.4,1.7l1-3.7
			c0.6-2.3,1.4-5.8,1.4-6.3c0-0.5-0.1-0.9-0.3-1.1c-0.2-0.2-0.5-0.3-0.9-0.3c-0.4,0-3.2,0.8-3.9,1l-0.1-0.2L61,0.4H61.7 M46.5,32.2
			c1.5,0,3.1-0.7,4.8-2.1L54,19.3c0.2-1,0.1-2-0.1-2.8c-0.3-0.9-0.7-1.5-1.4-1.9c-0.7-0.4-1.4-0.6-2.2-0.6c-1.4,0-2.8,0.6-4.3,1.8
			c-1.9,1.6-3.2,3.9-4,6.9c-0.8,3.1-0.7,5.4,0.3,7.1C43.3,31.4,44.7,32.2,46.5,32.2 M62.1,0h-0.5H61h-0.1l-0.1,0l-8.5,3.3l-0.4,0.2
			l0.2,0.4L52.3,4l0.1,0.2l0.3-0.1c0.9-0.3,3.5-1,3.8-1c0.3,0,0.5,0.1,0.7,0.2c0.1,0.1,0.2,0.3,0.2,0.8c0,0.4-0.8,3.7-1.4,6.3
			l-0.8,3.1c-1-0.9-2.4-1.4-4.2-1.4c-2.6,0-5.5,1.3-8.1,3.7c-2.5,2.3-4.1,4.9-4.9,8.1c-0.8,3-0.5,5.3,0.7,7.4
			c1.3,2.2,3.5,2.9,5.1,2.9c1.2,0,2.5-0.2,3.7-0.7c0.9-0.4,1.9-0.9,3-1.7l-0.5,1.9l-0.1,0.5h0.5h0.8h0.1l0.1,0L63,28.7l1.5-0.7
			l-1.7,0l-0.6,0l-0.1,0l-0.1,0l-0.3,0.1c-2.7,1.2-6.1,2.7-6.5,2.8c-0.1,0-0.2,0-0.2,0c-0.2,0-0.3-0.1-0.3-0.1
			c-0.1-0.1-0.2-0.4-0.2-0.8c0-0.3,0.2-1.4,0.9-4.3L62,0.5L62.1,0L62.1,0z M46.5,31.8c-1.6,0-2.9-0.7-3.8-2.3
			c-0.9-1.5-1-3.8-0.3-6.8c0.8-3,2.1-5.2,3.9-6.7c1.4-1.1,2.7-1.7,4-1.7c0.7,0,1.4,0.2,2,0.6c0.6,0.4,1,1,1.3,1.7
			c0.2,0.8,0.3,1.7,0.1,2.7l-2.7,10.6C49.3,31.2,47.8,31.8,46.5,31.8L46.5,31.8z"/>
	</g>
	<g>
		<linearGradient id="SVGID_5_" gradientUnits="userSpaceOnUse" x1="65.5024" y1="34.6026" x2="65.5024" y2="-0.6146">
			<stop  offset="0.2" style="stop-color:#007E5C"/>
			<stop  offset="0.2018" style="stop-color:#098362"/>
			<stop  offset="0.2119" style="stop-color:#379A7F"/>
			<stop  offset="0.2233" style="stop-color:#62B09B"/>
			<stop  offset="0.2355" style="stop-color:#88C3B3"/>
			<stop  offset="0.2488" style="stop-color:#A8D3C8"/>
			<stop  offset="0.2634" style="stop-color:#C4E1D9"/>
			<stop  offset="0.28" style="stop-color:#DAECE7"/>
			<stop  offset="0.2994" style="stop-color:#EBF5F2"/>
			<stop  offset="0.3233" style="stop-color:#F6FBF9"/>
			<stop  offset="0.3568" style="stop-color:#FDFEFE"/>
			<stop  offset="0.45" style="stop-color:#FFFFFF"/>
			<stop  offset="0.4636" style="stop-color:#FEF8F0"/>
			<stop  offset="0.4899" style="stop-color:#FCE6C7"/>
			<stop  offset="0.5263" style="stop-color:#F8C886"/>
			<stop  offset="0.5709" style="stop-color:#F3A02E"/>
			<stop  offset="0.58" style="stop-color:#F2971B"/>
		</linearGradient>
		<path class="st5" d="M58.5,33.2l0.2-0.7h0.1c1.2,0,2.3-0.1,2.6-0.3c0.4-0.2,0.7-0.5,1-0.9c0.3-0.4,0.6-1.3,0.9-2.5l2.1-8.2
			c0.6-2.2,0.9-3.8,0.9-4.4c0-0.4-0.1-0.7-0.2-0.8c-0.2-0.1-0.4-0.2-0.8-0.2c-0.4,0-1,0.1-1.8,0.4l-0.1,0L63.2,15l6.2-2.6l1.4,0
			l-4.2,16.5c-0.3,1.2-0.4,2.1-0.4,2.5c0.1,0.4,0.3,0.6,0.6,0.8c0.3,0.2,1.3,0.3,2.4,0.3h0.2l-0.2,0.7H58.5z M69.3,11.5
			c-0.7,0-1.3-0.2-1.7-0.7c-0.4-0.5-0.5-1.1-0.3-1.8c0.2-0.7,0.6-1.2,1.2-1.7c0.6-0.5,1.3-0.7,2-0.7c0.7,0,1.3,0.2,1.7,0.7
			c0.4,0.5,0.5,1.1,0.3,1.7c-0.2,0.7-0.6,1.2-1.2,1.7C70.7,11.3,70,11.5,69.3,11.5z"/>
		<path class="st1" d="M70.5,6.8c0.7,0,1.2,0.2,1.5,0.7c0.4,0.4,0.5,1,0.3,1.6c-0.2,0.6-0.5,1.2-1.1,1.6c-0.6,0.4-1.2,0.7-1.9,0.7
			c-0.7,0-1.2-0.2-1.5-0.7c-0.4-0.4-0.5-1-0.3-1.6c0.2-0.6,0.5-1.1,1.1-1.6C69.1,7,69.8,6.8,70.5,6.8 M70.5,12.6l-4.2,16.3
			C66,30.1,65.9,31,66,31.4c0.1,0.4,0.3,0.7,0.6,0.9c0.3,0.2,1.5,0.3,2.5,0.3L69.1,33H58.7l0.1-0.3c1.1,0,2.3-0.1,2.7-0.3
			c0.4-0.2,0.8-0.5,1.1-1c0.3-0.4,0.7-1.3,1-2.5l2.1-8.2c0.6-2.2,0.9-3.8,0.9-4.5c0-0.5-0.1-0.8-0.3-1c-0.2-0.2-0.5-0.3-0.9-0.3
			c-0.4,0-1.1,0.2-1.8,0.4l-0.2-0.3l6-2.5H70.5 M70.5,6.4c-0.8,0-1.5,0.2-2.1,0.7c-0.6,0.5-1.1,1.1-1.2,1.8
			c-0.2,0.7-0.1,1.4,0.4,1.9c0.4,0.5,1,0.8,1.8,0.8c0.7,0,1.4-0.2,2.1-0.7c0.6-0.5,1.1-1.1,1.2-1.8c0.2-0.7,0.1-1.4-0.4-1.9
			C71.8,6.7,71.2,6.4,70.5,6.4L70.5,6.4z M71,12.2h-0.5h-1h-0.1l-0.1,0l-6,2.5l-0.4,0.2l0.2,0.4l0.2,0.3l0.1,0.3l0.3-0.1
			c0.7-0.2,1.3-0.4,1.7-0.4c0.3,0,0.5,0.1,0.7,0.2c0.1,0.1,0.2,0.2,0.2,0.7c0,0.6-0.3,2.2-0.9,4.4l-2.1,8.2c-0.3,1.2-0.6,2-0.9,2.4
			c-0.3,0.4-0.6,0.7-1,0.8c-0.3,0.1-1.4,0.3-2.5,0.3h-0.3l-0.1,0.3l-0.1,0.3l-0.1,0.5h0.5h10.4h0.3l0.1-0.3l0.1-0.3l0.1-0.5h-0.5
			c-1.2,0-2.1-0.1-2.3-0.3c-0.2-0.2-0.4-0.4-0.5-0.7c-0.1-0.2,0-0.9,0.4-2.4l4.2-16.3L71,12.2L71,12.2z"/>
	</g>
</g>
<g>
	<path class="st6" d="M105.9,17.9c0,1.2,0.1,1.5,1.2,1.5v0.4h-3.4v-0.4c1,0,1.2-0.3,1.2-1.5v-4.6c0-0.6,0.1-1.2-0.6-1.2
		c-1.1,0-2,0.9-2.5,1.8l-0.3-0.1l0.8-2h6.4l0.8,2l-0.3,0.1c-0.5-1-1.4-1.8-2.5-1.8c-0.8,0-0.6,0.7-0.6,1.2V17.9z"/>
	<path class="st6" d="M109.3,16.8c0,1.1,0.3,2.7,1.7,2.7c0.7,0,1.4-0.4,1.8-1l0.2,0.2c-0.5,0.8-1.2,1.3-2.1,1.3
		c-1.6,0-2.7-1.3-2.7-2.8c0-1.4,1-2.9,2.5-2.9c1.4,0,2.3,1.2,2.3,2.5H109.3z M112,16.3c0.1-0.8-0.3-1.7-1.2-1.7
		c-0.9,0-1.3,1-1.4,1.7H112z"/>
	<path class="st6" d="M118.4,18.5c-0.5,0.8-1.3,1.4-2.3,1.4c-1.5,0-2.5-1.3-2.5-2.7c0-1.6,1.1-3,2.8-3c0.6,0,1.8,0.4,1.8,1.2
		c0,0.3-0.3,0.6-0.6,0.6c-0.8,0-0.5-1.4-1.6-1.4c-1.1,0-1.4,1.5-1.4,2.4c0,1.1,0.6,2.3,1.8,2.3c0.8,0,1.2-0.5,1.7-1L118.4,18.5z"/>
	<path class="st6" d="M120.5,18.3c0,1,0,1.1,0.8,1.2v0.3h-2.5v-0.3c0.7-0.1,0.7-0.2,0.7-1.2v-5.1c0-1-0.2-0.9-0.9-1v-0.3l1.9-0.6
		v3.8c0.5-0.5,1.3-0.9,2-0.9c1.2,0,1.4,0.8,1.4,2v2c0,1,0,1.1,0.7,1.2v0.3h-2.5v-0.3c0.7-0.1,0.7-0.2,0.7-1.2v-2
		c0-0.8-0.2-1.4-0.9-1.4c-0.6,0-1.1,0.4-1.5,0.7V18.3z"/>
	<path class="st6" d="M127,18.3c0,1,0,1.1,0.7,1.2v0.3h-2.5v-0.3c0.8-0.1,0.8-0.2,0.8-1.2v-2.4c0-0.6,0-0.8-0.7-0.8v-0.3l1.7-0.7
		v0.9c0.4-0.5,1.1-0.9,1.7-0.9c0.4,0,0.8,0.2,1.1,0.4c0.4,0.4,0.4,0.9,0.4,1.4v2.1c0,1,0,1.1,0.7,1.2v0.3h-2.5v-0.3
		c0.8-0.1,0.8-0.2,0.8-1.2v-1.9c0-0.7,0-1.5-0.9-1.5c-0.5,0-0.9,0.4-1.3,0.7V18.3z"/>
	<path class="st6" d="M131.2,17.2c0-1.4,1-2.9,2.5-2.9c1.5,0,2.5,1.5,2.5,2.9c0,1.4-1.1,2.7-2.5,2.7
		C132.2,19.9,131.2,18.5,131.2,17.2z M135.1,17c0-0.8-0.3-2.3-1.3-2.3c-1.1,0-1.4,1.5-1.4,2.3c0,0.8,0.3,2.6,1.3,2.6
		C134.8,19.6,135.1,17.8,135.1,17z"/>
	<path class="st6" d="M137.3,13.2c0-1-0.2-0.9-0.9-1v-0.3l1.9-0.6v7c0,1,0,1.1,0.8,1.2v0.3h-2.5v-0.3c0.7-0.1,0.7-0.2,0.7-1.2V13.2z
		"/>
	<path class="st6" d="M139.3,17.2c0-1.4,1-2.9,2.5-2.9c1.5,0,2.5,1.5,2.5,2.9c0,1.4-1.1,2.7-2.5,2.7
		C140.3,19.9,139.3,18.5,139.3,17.2z M143.1,17c0-0.8-0.3-2.3-1.3-2.3c-1.1,0-1.4,1.5-1.4,2.3c0,0.8,0.3,2.6,1.3,2.6
		C142.9,19.6,143.1,17.8,143.1,17z"/>
	<path class="st6" d="M148,19c0.7,0.2,2.1,0.4,2.1,1.4c0,1.2-1.7,1.4-2.6,1.4c-0.7,0-2.7-0.1-2.7-1.1c0-0.8,1.1-1,1.7-1.2
		c-0.3-0.1-1.2-0.3-1.2-0.8c0-0.5,0.6-0.7,1-0.8c-0.6-0.3-0.9-1-0.9-1.7c0-1.2,1.1-1.9,2.2-1.9c0.5,0,1.1,0.2,1.5,0.5
		c0.3-0.3,0.7-0.6,1.1-0.6c0.3,0,0.6,0.3,0.6,0.6c0,0.3-0.2,0.5-0.5,0.5c-0.4,0-0.5-0.4-0.8-0.4c-0.1,0-0.1,0-0.2,0.1
		c0.3,0.3,0.4,0.9,0.4,1.3c0,1.2-1.1,1.9-2.2,1.9c-0.3,0-0.7-0.1-0.9-0.2c-0.1,0-0.3,0.1-0.3,0.3c0,0.3,0.7,0.4,0.9,0.5L148,19z
		 M146.9,19.6c-0.5,0.1-1.3,0.4-1.3,1c0,0.7,1.3,0.8,1.9,0.8c0.5,0,1.7-0.1,1.7-0.7c0-0.4-0.5-0.6-0.8-0.7L146.9,19.6z M147.4,14.6
		c-0.8,0-1.2,1-1.2,1.7c0,0.7,0.3,1.6,1.2,1.6c0.8,0,1.1-0.8,1.1-1.5C148.5,15.7,148.2,14.6,147.4,14.6z"/>
	<path class="st6" d="M152.9,18.3c0,1,0,1.1,0.8,1.2v0.3h-2.5v-0.3c0.8-0.1,0.8-0.2,0.8-1.2v-2.4c0-0.6,0-0.8-0.7-0.8v-0.3l1.7-0.7
		V18.3z M152.2,13c-0.4,0-0.7-0.3-0.7-0.7c0-0.4,0.3-0.7,0.7-0.7c0.4,0,0.7,0.3,0.7,0.7C153,12.7,152.6,13,152.2,13z"/>
	<path class="st6" d="M155,16.8c0,1.1,0.3,2.7,1.7,2.7c0.7,0,1.4-0.4,1.8-1l0.2,0.2c-0.5,0.8-1.2,1.3-2.1,1.3
		c-1.6,0-2.7-1.3-2.7-2.8c0-1.4,1-2.9,2.5-2.9c1.4,0,2.3,1.2,2.3,2.5H155z M157.6,16.3c0.1-0.8-0.3-1.7-1.2-1.7
		c-0.9,0-1.3,1-1.4,1.7H157.6z"/>
	<path class="st6" d="M163.4,16l-0.3,0.1c-0.5-0.7-1.2-1.5-2.1-1.5c-0.4,0-0.9,0.3-0.9,0.8c0,1.4,3.5,0.8,3.5,2.9
		c0,1-0.9,1.7-1.8,1.7c-0.3,0-0.5-0.1-0.7-0.2c-0.1,0-0.3-0.1-0.4-0.1c-0.2,0-0.5,0.1-0.6,0.3l-0.7-1.9l0.2-0.1
		c0.4,0.7,1.5,1.6,2.3,1.6c0.5,0,1-0.4,1-0.9c0-1.4-3.4-0.8-3.4-2.8c0-0.9,0.9-1.6,1.7-1.6c0.4,0,0.8,0.2,1.1,0.2
		c0.2,0,0.4-0.1,0.5-0.3L163.4,16z"/>
	<path class="st6" d="M104.3,31.2c0,1.2,0.1,1.5,1,1.5v0.4h-3.2v-0.4c0.9,0,1.1-0.3,1.1-1.5v-4.3c0-1.2-0.1-1.5-1.1-1.5V25h3.8
		c1.3,0,2.5,0.7,2.5,2.1c0,1.8-1.6,2.2-3.2,2.2h-1V31.2z M104.3,28.9h0.4c1.4,0,2.6-0.3,2.6-1.9c0-1.2-0.8-1.7-1.9-1.7
		c-1.1,0-1.1,0.5-1.1,1.4V28.9z"/>
	<path class="st6" d="M110.7,31.6c0,1,0,1.1,0.7,1.2v0.3H109v-0.3c0.7-0.1,0.7-0.2,0.7-1.2v-2.4c0-0.6,0-0.8-0.7-0.8v-0.3l1.7-0.7
		v1.3c0.4-0.5,1.1-1.3,1.8-1.3c0.4,0,0.7,0.3,0.7,0.6c0,0.3-0.2,0.6-0.6,0.6c-0.4,0-0.5-0.3-0.9-0.3c-0.4,0-0.8,0.5-1,0.8V31.6z"/>
	<path class="st6" d="M115.4,31.6c0,1,0,1.1,0.8,1.2v0.3h-2.5v-0.3c0.8-0.1,0.8-0.2,0.8-1.2v-2.4c0-0.6,0-0.8-0.7-0.8v-0.3l1.7-0.7
		V31.6z M114.8,26.3c-0.4,0-0.7-0.3-0.7-0.7c0-0.4,0.3-0.7,0.7-0.7s0.7,0.3,0.7,0.7C115.5,26,115.2,26.3,114.8,26.3z"/>
	<path class="st6" d="M119.9,29.3c0.1-0.2,0.2-0.5,0.2-0.8c0-0.4-0.4-0.6-0.7-0.6v-0.3h2.2V28c-0.2,0-0.3,0-0.5,0.1
		c-0.2,0.2-0.4,0.8-0.5,1.1l-1.6,3.9h-0.5l-1.7-4.2c-0.2-0.4-0.3-0.8-0.8-0.9v-0.3h2.5V28c-0.3,0-0.7,0-0.7,0.4
		c0,0.2,0.1,0.5,0.2,0.6l1.1,2.7L119.9,29.3z"/>
	<path class="st6" d="M124.7,29.1c0-0.5-0.1-1.2-0.8-1.2c-0.6,0-0.8,0.4-0.9,0.8c-0.1,0.3-0.2,0.6-0.6,0.6c-0.3,0-0.5-0.2-0.5-0.5
		c0-0.9,1.3-1.3,2-1.3c0.5,0,1,0.1,1.4,0.4c0.4,0.3,0.4,0.8,0.4,1.3v2.5c0,0.3,0,0.8,0.3,0.8c0.2,0,0.3-0.1,0.5-0.3l0.1,0.2
		c-0.3,0.4-0.6,0.8-1.1,0.8c-0.5,0-0.7-0.4-0.8-0.8c-0.5,0.4-1.1,0.8-1.8,0.8c-0.8,0-1.3-0.5-1.3-1.3c0-1.5,1.9-1.8,3.1-2.1V29.1z
		 M124.7,30.2c-0.8,0.1-2,0.7-2,1.6c0,0.5,0.4,0.9,0.8,0.9c0.4,0,0.9-0.3,1.2-0.6V30.2z"/>
	<path class="st6" d="M126.4,28v-0.3c0.8-0.3,1.3-1.2,1.4-2h0.4v1.9h1.6V28h-1.6v3.4c0,0.5-0.1,1.2,0.6,1.2c0.4,0,0.7-0.3,1-0.6
		l0.2,0.2c-0.4,0.5-1,0.9-1.7,0.9c-1,0-1.1-0.8-1.1-1.6V28H126.4z"/>
	<path class="st6" d="M131.3,30c0,1.1,0.3,2.7,1.7,2.7c0.7,0,1.4-0.4,1.8-1l0.2,0.2c-0.5,0.8-1.2,1.3-2.1,1.3
		c-1.6,0-2.7-1.3-2.7-2.8c0-1.4,1-2.9,2.5-2.9c1.4,0,2.3,1.2,2.3,2.5H131.3z M133.9,29.6c0.1-0.8-0.3-1.7-1.2-1.7
		c-0.9,0-1.3,1-1.4,1.7H133.9z"/>
	<path class="st6" d="M145,31l-0.8,2h-5.7v-0.4c0.9,0,1.1-0.3,1.1-1.5v-4.3c0-1.2-0.1-1.5-1.1-1.5V25h3.2v0.4
		c-0.9,0-1.1,0.3-1.1,1.5v4.6c0,1,0.1,1.3,1.2,1.3c1.5,0,2.1-0.6,2.9-1.8L145,31z"/>
	<path class="st6" d="M146.8,31.6c0,1,0,1.1,0.8,1.2v0.3h-2.5v-0.3c0.8-0.1,0.8-0.2,0.8-1.2v-2.4c0-0.6,0-0.8-0.7-0.8v-0.3l1.7-0.7
		V31.6z M146.2,26.3c-0.4,0-0.7-0.3-0.7-0.7c0-0.4,0.3-0.7,0.7-0.7c0.4,0,0.7,0.3,0.7,0.7C146.9,26,146.6,26.3,146.2,26.3z"/>
	<path class="st6" d="M149.9,31.6c0,1,0,1.1,0.8,1.2v0.3h-2.5v-0.3c0.8-0.1,0.8-0.2,0.8-1.2v-2.4c0-0.6,0-0.8-0.7-0.8v-0.3l1.7-0.7
		v1.1c0.4-0.6,1.1-1,1.8-1c0.6,0,1.1,0.4,1.3,1c0.5-0.5,1.1-1,1.9-1c0.5,0,0.9,0.2,1.2,0.6c0.2,0.4,0.2,1,0.2,1.5v1.9
		c0,1,0,1.1,0.7,1.2v0.3h-2.5v-0.3c0.8-0.1,0.8-0.2,0.8-1.2v-2c0-0.6,0-1.5-0.8-1.5c-0.6,0-1.1,0.4-1.5,0.8v2.6c0,1,0,1.1,0.8,1.2
		v0.3h-2.5v-0.3c0.7-0.1,0.7-0.2,0.7-1.2v-2c0-0.6,0-1.5-0.8-1.5c-0.6,0-1.1,0.4-1.4,0.8V31.6z"/>
	<path class="st6" d="M159.4,31.6c0,1,0,1.1,0.8,1.2v0.3h-2.5v-0.3c0.8-0.1,0.8-0.2,0.8-1.2v-2.4c0-0.6,0-0.8-0.7-0.8v-0.3l1.7-0.7
		V31.6z M158.8,26.3c-0.4,0-0.7-0.3-0.7-0.7c0-0.4,0.3-0.7,0.7-0.7c0.4,0,0.7,0.3,0.7,0.7C159.5,26,159.2,26.3,158.8,26.3z"/>
	<path class="st6" d="M160.3,28v-0.3c0.8-0.3,1.3-1.2,1.4-2h0.4v1.9h1.6V28h-1.6v3.4c0,0.5-0.1,1.2,0.6,1.2c0.4,0,0.7-0.3,1-0.6
		l0.2,0.2c-0.4,0.5-1,0.9-1.7,0.9c-1,0-1.1-0.8-1.1-1.6V28H160.3z"/>
	<path class="st6" d="M165,30c0,1.1,0.3,2.7,1.7,2.7c0.7,0,1.4-0.4,1.8-1l0.2,0.2c-0.5,0.8-1.2,1.3-2.1,1.3c-1.6,0-2.7-1.3-2.7-2.8
		c0-1.4,1-2.9,2.5-2.9c1.4,0,2.3,1.2,2.3,2.5H165z M167.6,29.6c0.1-0.8-0.3-1.7-1.2-1.7c-0.9,0-1.3,1-1.4,1.7H167.6z"/>
	<path class="st6" d="M173,26.5c0-1-0.2-0.9-0.9-1v-0.3l1.9-0.6v7c0,1,0,1.1,0.8,1.2v0.3H173v-0.6c-0.4,0.4-0.9,0.8-1.5,0.8
		c-1.5,0-2.1-1.5-2.1-2.8c0-2.2,1.3-2.9,2.1-2.9c0.6,0,1.1,0.3,1.6,0.7V26.5z M173,28.7c-0.3-0.3-0.8-0.7-1.2-0.7
		c-1.1,0-1.4,1.5-1.4,2.4c0,0.9,0.3,2.3,1.4,2.3c0.5,0,0.9-0.4,1.2-0.7V28.7z"/>
</g>
</svg>
