<?xml version="1.0" encoding="utf-8"?>
<!-- Generator: Adobe Illustrator 16.0.0, SVG Export Plug-In . SVG Version: 6.00 Build 0)  -->
<!DOCTYPE svg PUBLIC "-//W3C//DTD SVG 1.1//EN" "http://www.w3.org/Graphics/SVG/1.1/DTD/svg11.dtd">
<svg version="1.1" id="_レイヤー_1" xmlns="http://www.w3.org/2000/svg" xmlns:xlink="http://www.w3.org/1999/xlink" x="0px"
	 y="0px" width="847.483px" height="253.476px" viewBox="70.55 73.426 847.483 253.476"
	 enable-background="new 70.55 73.426 847.483 253.476" xml:space="preserve">
<g id="_ロゴ">
	<path fill="#2B90B7" d="M354.347,99.131v5.8c-11.402,1.221-18.621,3.46-21.675,6.715c-4.882,5.089-7.323,15.872-7.323,32.355
		v160.552h-5.192L185.856,137.286l-0.612,119.039c0,15.672,1.932,26.099,5.801,31.29c3.864,5.189,11.492,7.783,22.891,7.783v5.801
		h-71.73v-5.801c12.006,0,19.942-2.441,23.81-7.327c3.864-4.882,5.801-15.461,5.801-31.745V121.717
		c-5.904-7.121-10.736-11.697-14.501-13.736c-3.765-2.031-8.804-3.051-15.109-3.051v-5.8l52.174,0.019l116.93,146.608l0.609-101.81
		c0-16.664-2.239-27.535-6.716-32.617c-3.661-4.265-11.191-6.4-22.584-6.4v-5.801L354.347,99.131L354.347,99.131z"/>
	<path fill="#2B90B7" d="M646.452,99.131v5.8c-7.529,1.221-12.874,3.103-16.027,5.645c-3.157,2.549-5.85,6.868-8.088,12.976
		c-6.714,18.313-13.938,37.952-21.67,58.909c-9.975,27.271-17.298,47.723-21.977,61.351c-7.53,21.976-14.146,42.229-19.842,60.742
		h-4.576c-3.666-10.579-8.448-23.909-14.348-39.985c-4.273-11.395-10.375-27.364-18.315-47.92
		c-2.647-6.917-8.038-20.652-16.176-41.208l-47.006,129.114h-4.579c-7.732-23.198-18.01-52.502-30.826-87.905
		c-10.79-29.709-20.149-55.044-28.083-76.005c-4.273-11.188-7.43-18.516-9.462-21.977c-4.882-8.343-12.209-12.92-21.976-13.735
		v-5.801h74.783v5.801c-13.23,0-19.842,3.448-19.842,10.338c0,2.233,0.199,4.161,0.604,5.781c0.405,1.623,1.32,4.159,2.739,7.604
		l43.784,114.362l32.812-85.672l-10.061-24.986c-4.886-12.191-9.156-19.807-12.814-22.854c-3.661-3.05-9.656-4.575-17.992-4.575
		v-5.8h81.499v5.8c-6.921,0-12.011,0.51-15.262,1.525c-5.494,1.832-8.241,5.19-8.241,10.074c0,1.831,0.86,5.035,2.593,9.615
		c1.725,4.577,3.607,9.309,5.647,14.192l40.292,104.085l38.153-103.475c1.418-3.457,2.593-7.22,3.508-11.293
		c0.917-4.068,1.374-7.63,1.374-10.684c0-5.289-1.783-8.799-5.341-10.53c-3.563-1.725-8.804-2.897-15.718-3.509v-5.8h60.436
		L646.452,99.131z"/>
	<path fill="#2B90B7" d="M842.411,163.536h-7.021c-4.074-17.094-11.498-30.524-22.282-40.292
		c-11.804-10.783-26.76-16.178-44.868-16.178c-7.939,0-15.978,1.58-24.115,4.732c-8.143,3.156-15.366,7.782-21.671,13.887
		c-7.327,7.126-13.028,15.568-17.094,25.336c-5.495,13.228-8.242,29.812-8.242,49.753c0,30.324,7.632,53.618,22.895,69.898
		c13.429,14.244,30.723,21.364,51.889,21.364c12.407,0,24.161-2.388,35.253-7.169c11.092-4.783,22.333-12.668,33.731-23.656
		l5.493,5.494c-3.053,3.462-6.003,6.818-8.854,10.069c-8.138,7.736-17.198,13.942-27.164,18.622
		c-14.245,6.714-29.813,10.073-46.701,10.073c-27.678,0-50.776-8.038-69.289-24.115c-21.779-18.924-32.659-45.984-32.659-81.191
		c0-32.554,10.682-58.605,32.051-78.14c19.734-18.11,43.647-27.167,71.73-27.167c8.948,0,18.01,1.022,27.165,3.054
		c8.746,2.44,17.599,4.783,26.557,7.021c3.454,0,6.458-0.811,9.002-2.444c2.545-1.626,4.22-4.168,5.035-7.63h6.413L842.411,163.536
		L842.411,163.536z"/>
</g>
</svg>
