<?xml version="1.0" encoding="utf-8"?>
<!-- Generator: Adobe Illustrator 25.0.0, SVG Export Plug-In . SVG Version: 6.00 Build 0)  -->
<svg version="1.1" id="レイヤー_1" xmlns="http://www.w3.org/2000/svg" xmlns:xlink="http://www.w3.org/1999/xlink" x="0px"
	 y="0px" viewBox="0 0 122 32.5" style="enable-background:new 0 0 122 32.5;" xml:space="preserve">
<style type="text/css">
	.st0{fill:#E95504;}
</style>
<g>
	<g>
		<path class="st0" d="M12.4,14.8L8.4,27.3c-0.5,1.7-0.6,2.7-0.3,3.1c0.5,0.6,2,0.9,3.3,0.9h0.5l-0.1,0.4H0l0.1-0.4h0.4
			c1.5,0,2.7-0.4,3.6-1.1c0.5-0.4,1-1.4,1.4-2.9l7.3-23c0.5-1.7,0.6-2.7,0.3-3.1c-0.5-0.6-1.9-0.9-3.2-0.9H9.5L9.6,0H20
			c3.2,0,5.5,0.3,7.1,0.9c1.6,0.6,2.3,1.1,3.1,2.3c0.8,1.3,0.7,3,0.2,4.6c-0.7,2.2-2.1,4-4.4,5.5c-2.2,1.5-4.3,2-7.8,2
			c-0.9,0-1.8,0-2.7-0.1C14.5,15.2,13.4,15,12.4,14.8z M12.7,13.7c1,0.1,1.8,0.2,2.6,0.3c0.8,0.1,1.4,0.1,2,0.1c2,0,3.9-0.5,5.7-1.6
			c1.8-1,3-2.8,3.6-4.4c0.4-1.1,0.5-2.6,0.1-3.6c-0.4-1-1.1-1.7-2.2-2.2c-1.1-0.5-2.5-0.7-4.1-0.7c-1,0-2.3,0.1-3.9,0.4L12.7,13.7z"
			/>
		<path class="st0" d="M27.9,19.9c-0.5,0.1-0.8-0.1-1.1-0.5c-0.2-0.3-0.3-0.8-0.1-1.4c0.4-1.1,1.3-2.2,2.9-3.1
			c1.6-0.9,3.5-1.4,5.8-1.4c1.7,0,2.3,0.2,3.2,0.8c0.7,0.4,1.1,1.2,1.2,2c0.1,0.6-0.1,1.6-0.7,3.3l-1.9,6.1c-0.5,1.7-1,3.1-1,3.5
			c-0.1,0.4,0,0.6,0.1,0.8c0.1,0.1,0.3,0.2,0.5,0.2c0.2,0,0.4,0,0.6-0.1c0.4-0.2,1.1-0.6,2.2-1.4l-0.2,0.7c-2.2,2-3.1,2.6-4.6,2.6
			c-0.7,0-1.2-0.2-1.5-0.7c-0.3-0.4-0.4-0.8,0-1.9c-2.5,1.4-4,2.2-4.6,2.5c-0.9,0.3-1.8,0.5-2.6,0.5c-1.4,0-2.3-0.4-3-1.3
			c-0.6-0.8-0.7-2-0.3-3.3c0.3-0.9,0.7-1.6,1.4-2.3c0.9-0.9,2.2-1.7,3.9-2.5c1.7-0.8,4.4-1.7,8.2-2.9l0.2-0.7c0.6-1.8,0.6-3,0.2-3.7
			c-0.4-0.7-1.2-1-2.4-1c-0.9,0-1.7,0.3-2.4,0.7c-1.3,0.8-2,1.9-2.3,2.6C29.4,18.7,28.9,19.8,27.9,19.9z M33.7,28.4l2.3-7.3
			c-2.8,0.8-4.6,1.5-5.5,1.9c-1.5,0.6-2.7,1.2-3.4,1.9c-0.8,0.7-1.3,1.4-1.5,2.1c-0.3,1-0.2,1.8,0.3,2.4c0.5,0.6,1.2,1,2.2,1
			C29.3,30.5,31.2,29.8,33.7,28.4z"/>
		<path class="st0" d="M44,31.8c-0.5-0.3-0.8-0.8-0.9-1.4c-0.1-0.6,0-1.6,0.5-2.9L47.8,14h-4.2l0.1-0.3c0,0,6.2-0.1,8.8-6.6h0.4
			L51,13h5l-0.3,1h-5L46.5,27c-0.4,1.2-0.4,1.9-0.2,2.3c0.2,0.4,0.6,0.6,1.2,0.6c0.5,0,1-0.1,1.5-0.4c0.5-0.3,3.5-2.7,5.5-5.3l0,0.3
			c-0.9,1.3-3.3,4.8-6.3,6.8C45.7,33,44,31.8,44,31.8z"/>
		<path class="st0" d="M71.4,25.2c-1.5,2.5-3,4.3-5.5,5.7c-1.8,1.1-4,1.5-5.8,1.5c-2.2,0-3.9-0.9-5-2.6c-1.1-1.7-1.2-4-0.3-6.9
			c0.9-2.8,2.5-5.1,4.9-6.9c2.4-1.8,4.9-2.6,7.5-2.6c1.9,0,3.4,0.5,4.3,1.4c1,0.9,1.3,1.9,1,2.9c-0.2,0.5-0.5,0.9-0.9,1.2
			c-0.4,0.3-1,0.5-1.6,0.5c-0.8,0-1.4-0.2-1.7-0.7c-0.2-0.3-0.2-0.8,0-1.6c0.2-0.8,0.1-1.4-0.3-1.8c-0.4-0.4-0.9-0.7-1.8-0.8
			c-1.4-0.1-3.5,0.6-4.7,1.6c-1.6,1.3-2.8,3-3.6,5.1c-0.8,2.1-1,4.3-0.4,5.9c0.8,2.1,2.9,2.7,4.9,2.6c0.9,0,1.9-0.2,3-0.6
			c0.6-0.2,1.3-0.6,1.8-0.9c1-0.6,2.6-1.8,3.8-3.4L71.4,25.2z"/>
		<path class="st0" d="M84.4,13.5c2.8,0,4.7,1,5.8,3.1c0.9,1.8,1,3.8,0.2,6.1c-0.5,1.6-1.4,3.2-2.7,4.9c-1.3,1.6-2.8,2.9-4.5,3.7
			c-1.7,0.8-3.3,1.3-5.1,1.3c-2.8,0-4.7-1.1-5.6-3.2c-0.8-1.8-0.9-3.8-0.1-6.1c0.5-1.6,1.5-3.3,2.8-4.9c1.4-1.6,2.8-2.8,4.5-3.6
			C81.3,13.9,82.9,13.5,84.4,13.5z M83.4,14.4c-0.8,0-1.7,0.2-2.7,0.6c-1,0.4-1.9,1.2-2.8,2.3c-0.9,1.1-1.6,2.5-2.1,4.2
			c-0.9,2.7-1,5.1-0.4,7.1c0.6,2,2,3,4,3c1.5,0,3-0.5,4.3-1.6c1.3-1.1,2.4-3,3.3-5.6c1.1-3.3,1.1-6,0-7.9
			C86.4,15.1,85.2,14.4,83.4,14.4z"/>
		<path class="st0" d="M99.8,13.5l-1.3,4c2.5-2.7,4.6-4,6.3-4c0.8,0,1.4,0.2,1.7,0.7c0.4,0.4,0.5,0.9,0.3,1.5
			c-0.1,0.3-0.4,0.6-0.6,0.8c-0.4,0.4-1,0.5-1.5,0.5c-0.5,0-1-0.2-1.5-0.7c-0.5-0.4-1.2-0.3-1.5-0.3c-0.3,0-0.7,0.3-1.1,0.5
			C100,17.1,99,18,98,19.2l-2.7,8.6c-0.3,1-0.4,1.7-0.3,2.2c0.1,0.4,0.3,0.6,0.7,0.9c0.4,0.2,0.7,0.4,1.6,0.4l-0.1,0.3h-8.6l0.1-0.3
			c1,0,1.4-0.1,2-0.4c0.4-0.2,0.8-0.5,1.1-1c0.1-0.2,0.4-0.9,0.7-1.9l2.2-6.9c0.7-2.1,1.1-3.7,1.2-4.1c0-0.4,0-0.7-0.2-0.9
			c-0.2-0.2-0.5-0.3-0.8-0.3c-0.4,0-1,0.1-1.6,0.3l-0.1-0.3l5.9-2.2H99.8z"/>
		<path class="st0" d="M107.7,20.8c-1.1,2.7-1.5,5.5-0.5,7c0.6,0.9,1.5,1.6,2.7,1.9c0.8,0.2,1.8,0.2,2.6,0.1
			c1.3-0.1,2.7-0.6,3.9-1.2c1.2-0.6,2.5-1.7,3.6-3.3l0.3,0.1c-0.9,1.8-2.3,3.4-4.2,4.9c-1.9,1.5-4,2.2-6.1,2.2
			c-2.4,0-4.1-0.8-5.3-2.5c-1.2-1.7-1.3-3.9-0.4-6.8c1-3.1,2.6-5.4,4.9-7.2c2.3-1.7,4.7-2.6,7.3-2.6c2.2,0,3.8,0.7,4.8,2
			c1,1.3,1.1,3.1,0.4,5.3H107.7z M108,20h10.9c0.4-1.4,0.2-2.3,0.1-2.8c-0.2-0.8-0.7-1.5-1.4-2c-0.7-0.4-1.5-0.7-2.3-0.7
			c-1.4,0-2.5,0.4-3.9,1.3C110.1,16.8,108.9,18,108,20z"/>
	</g>
	<path class="st0" d="M39.5,29.4c0,0,3.3-2.8,5.3-4.8h-0.2c0,0-2.5,2.3-4.9,4.1"/>
	<path class="st0" d="M70,27.3c0,0,1.7-2.2,2.8-4.7h-0.2c0,0-0.7,1.3-1.6,2.4"/>
</g>
</svg>
