<?xml version="1.0" encoding="utf-8"?>
<!-- Generator: Adobe Illustrator 25.0.0, SVG Export Plug-In . SVG Version: 6.00 Build 0)  -->
<svg version="1.1" id="レイヤー_1" xmlns="http://www.w3.org/2000/svg" xmlns:xlink="http://www.w3.org/1999/xlink" x="0px"
	 y="0px" viewBox="0 0 85.4 40" style="enable-background:new 0 0 85.4 40;" xml:space="preserve">
<style type="text/css">
	.st0{fill:#3C0162;}
</style>
<g>
	<g>
		<path class="st0" d="M14.6,32.5c-1.4,0.5-3.5,0.9-5.1,0.9c-9.1,0-10.6-9-8.8-16.6C2.4,9.5,8.3,0.4,17.4,0.4c7.4,0,11,7.2,8.9,16
			c-1.8,7.5-6.6,12.9-8.9,14.3l-0.6,0.4l5.3,3.9c5.7,3.7,10.4,3.6,12.6,3.6c1.6,0,4-0.5,6.4-1.4c0.2-0.1,0.4-0.2,0.5-0.2
			c0.2,0,0.2,0.1,0.2,0.3c0,0.2-0.2,0.3-0.5,0.4c-2.1,1-6,2.4-10.4,2.3c-2.6-0.1-4.6-0.5-6.6-1.3c-1.7-0.7-3.5-1.6-5.5-3L14.6,32.5z
			 M22.2,17.4c2.4-10.2-1.5-15.7-5.8-15.7C12.3,1.7,7,6.5,4.8,15.9c-2.7,11.2,1.2,16.2,6.2,16.2C13.4,32.1,19.4,28.9,22.2,17.4z"/>
		<path class="st0" d="M31.8,0.8c-0.2-0.3-0.2-0.4-0.2-0.6C31.7,0.2,31.9,0,32,0c0.6,0,1.7,0.4,2.2,0.6c0.6,0.2,0.7,0.4,0.6,0.9
			c-0.5,1.9-3.2,5-4.7,6.5c-0.2,0.2-0.4,0.4-0.5,0.4c-0.1,0-0.1,0-0.1-0.2c0-0.1,0.1-0.1,0.2-0.4C30.5,6.7,31.5,4.9,32,3
			C32.2,1.9,32,1.1,31.8,0.8z"/>
	</g>
	<g>
		<path class="st0" d="M43.4,13.7l-1.4,6h-0.2c0-1.9-0.2-3.2-0.8-3.9c-0.5-0.7-1.3-1-2.4-1c-0.8,0-1.5,0.2-2.1,0.7
			c-0.6,0.5-1,1-1.1,1.6c-0.2,0.7-0.1,1.3,0.1,1.9c0.2,0.5,0.8,1.1,1.8,1.7l2.2,1.4c2.1,1.3,2.8,3,2.3,5.1c-0.4,1.6-1.2,2.9-2.6,3.9
			c-1.3,1-2.7,1.5-4,1.5c-1,0-2-0.2-3.2-0.6c-0.4-0.1-0.7-0.2-0.9-0.2c-0.3,0-0.5,0.2-0.7,0.5h-0.2l1.5-6.3h0.2
			c-0.1,1.8,0.2,3.2,0.9,4.1c0.7,0.9,1.6,1.4,2.8,1.4c0.8,0,1.5-0.3,2.1-0.8c0.6-0.5,1-1.2,1.2-1.9c0.2-0.9,0.1-1.6-0.3-2.2
			c-0.4-0.6-1.4-1.4-2.8-2.3c-1.5-0.9-2.4-1.8-2.7-2.5c-0.3-0.7-0.4-1.7-0.1-2.8c0.3-1.5,1.1-2.7,2.2-3.7c1.1-1,2.4-1.5,3.8-1.5
			c0.6,0,1.4,0.1,2.2,0.4c0.5,0.2,0.9,0.3,1.1,0.3c0.2,0,0.3,0,0.5-0.1c0.1-0.1,0.3-0.3,0.5-0.6H43.4z"/>
		<path class="st0" d="M63.9,6.4C63.7,6.6,63.3,6.9,63,7c-0.6,0.2-0.9,0.2-1.4-0.3c-0.2-0.2-0.4-0.6-0.6-1.3
			c-0.3-0.8-0.4-1.2-1.1-1.4c-0.4-0.1-1-0.1-1.5,0c-0.5,0.1-1,0.4-1.5,0.7C56.5,5,56,5.5,55.7,6.2c-0.3,0.7-0.8,2.3-1.5,5.1
			l-0.8,3.4h4.1l-0.2,1h-4.1l-2.8,11.7C50,29,49.9,30,50.1,30.5c0.3,0.6,0.8,0.9,1.5,0.9h2.5L54,31.6H42.5l0.1-0.3h1.7
			c0.5,0,0.9-0.1,1.4-0.4c0.4-0.3,0.8-0.6,1-1c0.2-0.4,0.5-1.3,0.8-2.6l2.8-11.7h-3.1l0.2-1h3.1l0.8-3.3c0.4-1.8,1-3.3,1.8-4.5
			c0.8-1.2,1.8-2.2,3.1-3c1.2-0.8,2.5-1.1,3.8-1.1c1.2,0,2.1,0.2,3.1,1C63.5,4.1,63.8,4.6,64,5C64.3,5.6,64.2,6,63.9,6.4z"/>
		<path class="st0" d="M65.9,13.7L62.5,28c-0.3,1.1-0.4,1.8-0.3,2.2c0.1,0.4,0.2,0.6,0.4,0.8c0.2,0.2,1.2,0.3,2,0.3l-0.1,0.3h-8.4
			l0.1-0.3c0.8,0,2.3-0.1,2.6-0.3c0.3-0.2,0.6-0.4,0.8-0.8c0.2-0.4,0.5-1.1,0.8-2.2l1.7-7.2c0.5-1.9,0.7-3.3,0.8-3.9
			c0-0.4,0-0.7-0.2-0.9c-0.1-0.2-0.4-0.2-0.7-0.2c-0.3,0-0.8,0.1-1.3,0.3l-0.1-0.3l4.5-2.2H65.9z M66,8.7c0.5,0,0.9,0.2,1.1,0.6
			c0.3,0.4,0.3,0.8,0.2,1.4c-0.1,0.5-0.4,1-0.8,1.4c-0.4,0.4-0.9,0.6-1.4,0.6s-0.9-0.2-1.1-0.6c-0.3-0.4-0.3-0.9-0.2-1.4
			s0.4-1,0.8-1.4C65,8.9,65.5,8.7,66,8.7z"/>
		<path class="st0" d="M70.2,14.7h7.5L77.6,15c-0.5,0-0.8,0.1-1.1,0.3c-0.2,0.2-0.4,0.4-0.5,0.7c-0.1,0.3,0,0.8,0.3,1.4
			c0.1,0.2,0.2,0.5,0.3,1l0.7,2l1.8-2c1.1-1.3,1.8-2.1,1.8-2.4c0.1-0.3,0-0.5-0.1-0.7C80.7,15.1,80.4,15,80,15l0.1-0.3h5.4L85.4,15
			c-0.6,0-1.1,0.2-1.6,0.5c-0.7,0.4-1.7,1.4-3,2.9l-3,3.2l2.5,6.4c0.6,1.6,1.1,2.5,1.4,2.8c0.3,0.3,1.3,0.5,2,0.5l-0.1,0.3h-8.5
			l0.1-0.3c0.5,0,1.5-0.1,1.8-0.4c0.3-0.2,0.4-0.4,0.5-0.7c0.1-0.3-0.1-1-0.6-2.2l-1.4-3.8L72,28c-1.1,1.2-1.6,1.9-1.7,2.1
			c-0.1,0.3,0,0.6,0.2,0.8c0.2,0.3,1.1,0.4,1.6,0.4L72,31.6h-6.2l0.1-0.3c0.4-0.1,1.3-0.2,1.7-0.5c0.5-0.4,1.5-1.3,2.9-2.9L75,23
			l-1.9-4.9c-0.5-1.4-1-2.3-1.4-2.6c-0.4-0.4-0.9-0.5-1.6-0.5L70.2,14.7z"/>
	</g>
	<path class="st0" d="M41.4,37c0,0,3.8-1.5,8.8-5.2c0,0-3.5,3.3-8.6,5.7"/>
</g>
</svg>
